<svg width="69" height="73" fill="none" xmlns="http://www.w3.org/2000/svg"><g clip-path="url(#clip0)" fill="#000"><path d="M55.25 0H14.078a3.536 3.536 0 00-2.58 1.15 4.078 4.078 0 00-1.072 2.77v65.16a4.078 4.078 0 001.071 2.77A3.535 3.535 0 0014.078 73H55.25a3.536 3.536 0 002.581-1.15 4.078 4.078 0 001.072-2.77V3.92a4.078 4.078 0 00-1.072-2.77A3.536 3.536 0 0055.251 0zm1.66 69.08c0 .472-.175.924-.486 1.258a1.607 1.607 0 01-1.174.523H14.078c-.44 0-.861-.188-1.173-.523a1.854 1.854 0 01-.487-1.259V3.921c.001-.473.176-.925.487-1.26a1.607 1.607 0 011.173-.522H55.25a1.6 1.6 0 011.173.523c.312.334.487.786.487 1.259v65.158z"/><path d="M50.602 5.703H18.727a2.25 2.25 0 00-1.643.732 2.594 2.594 0 00-.681 1.763v5.703c0 .662.245 1.296.681 1.764a2.25 2.25 0 001.643.732h31.875a2.25 2.25 0 001.643-.732 2.6 2.6 0 00.681-1.764V8.198c0-.661-.246-1.295-.681-1.763a2.25 2.25 0 00-1.643-.732zm.332 8.198a.37.37 0 01-.097.252.32.32 0 01-.235.105H18.727a.32.32 0 01-.235-.105.37.37 0 01-.097-.252V8.198a.37.37 0 01.097-.252.32.32 0 01.235-.104h31.875c.088 0 .172.037.235.104a.37.37 0 01.097.252v5.703zm-29.55 9.125h-2.657a2.251 2.251 0 00-1.643.732 2.594 2.594 0 00-.681 1.764v2.851c0 .662.245 1.296.681 1.764a2.25 2.25 0 001.643.731h2.656a2.25 2.25 0 001.643-.731c.436-.468.68-1.102.681-1.764v-2.852a2.59 2.59 0 00-.681-1.763 2.249 2.249 0 00-1.643-.732zm.331 5.347a.37.37 0 01-.097.252.321.321 0 01-.235.105h-2.656a.321.321 0 01-.235-.105.37.37 0 01-.097-.252v-2.852a.37.37 0 01.097-.252.321.321 0 01.235-.104h2.656c.088 0 .173.038.235.104a.37.37 0 01.097.253v2.851zm9.407-5.347h-2.656a2.251 2.251 0 00-1.643.732 2.594 2.594 0 00-.681 1.764v2.851c0 .662.246 1.296.681 1.764a2.25 2.25 0 001.643.731h2.656a2.25 2.25 0 001.643-.731c.436-.468.68-1.102.681-1.764v-2.852a2.59 2.59 0 00-.681-1.763 2.249 2.249 0 00-1.643-.732zm.332 5.347a.37.37 0 01-.097.252.321.321 0 01-.235.105h-2.656a.323.323 0 01-.234-.105.371.371 0 01-.098-.252v-2.852c0-.094.035-.184.098-.251a.322.322 0 01.234-.105h2.656c.088 0 .173.038.235.104a.37.37 0 01.097.253v2.851zm9.409-5.347h-2.657a2.247 2.247 0 00-1.642.732 2.594 2.594 0 00-.682 1.764v2.851c.001.662.246 1.296.682 1.764a2.25 2.25 0 001.642.731h2.657a2.25 2.25 0 001.642-.731 2.595 2.595 0 00.682-1.764v-2.852a2.59 2.59 0 00-.682-1.763 2.249 2.249 0 00-1.642-.732zm.332 5.347a.372.372 0 01-.098.252.323.323 0 01-.234.105h-2.657a.321.321 0 01-.234-.105.37.37 0 01-.098-.252v-2.852a.37.37 0 01.098-.252.321.321 0 01.234-.104h2.657c.088 0 .172.038.234.105a.372.372 0 01.098.252v2.851zm9.407-5.347h-2.656a2.25 2.25 0 00-1.643.732 2.594 2.594 0 00-.682 1.764v2.851c.001.662.246 1.296.682 1.764a2.25 2.25 0 001.643.731h2.656a2.25 2.25 0 001.643-.731 2.6 2.6 0 00.681-1.764v-2.852c0-.661-.246-1.295-.681-1.763a2.249 2.249 0 00-1.643-.732zm.332 5.347a.37.37 0 01-.097.252.321.321 0 01-.235.105h-2.656a.32.32 0 01-.235-.105.37.37 0 01-.097-.252v-2.852a.37.37 0 01.097-.252.32.32 0 01.235-.104h2.656c.088 0 .172.038.235.104a.37.37 0 01.097.253v2.851zm-29.55 6.915h-2.657a2.25 2.25 0 00-1.643.732 2.594 2.594 0 00-.681 1.763v2.852c0 .661.245 1.296.681 1.763a2.25 2.25 0 001.643.732h2.656a2.25 2.25 0 001.643-.732c.436-.468.68-1.102.681-1.763v-2.852c0-.661-.245-1.296-.681-1.763a2.25 2.25 0 00-1.643-.732zm.331 5.347a.37.37 0 01-.097.252.32.32 0 01-.235.104h-2.656a.32.32 0 01-.235-.104.37.37 0 01-.097-.252v-2.852a.37.37 0 01.097-.252.32.32 0 01.235-.104h2.656a.32.32 0 01.235.104.37.37 0 01.097.252v2.852zm9.407-5.347h-2.656a2.25 2.25 0 00-1.643.732 2.594 2.594 0 00-.681 1.763v2.852c0 .661.246 1.296.681 1.763a2.25 2.25 0 001.643.732h2.656a2.25 2.25 0 001.643-.732c.436-.468.68-1.102.681-1.763v-2.852c0-.661-.245-1.296-.681-1.763a2.25 2.25 0 00-1.643-.732zm.332 5.347a.37.37 0 01-.097.252.32.32 0 01-.235.104h-2.656a.322.322 0 01-.234-.105.371.371 0 01-.098-.251v-2.852c0-.094.035-.185.098-.251a.322.322 0 01.234-.105h2.656a.32.32 0 01.235.104.37.37 0 01.097.252v2.852zm9.409-5.347h-2.657a2.25 2.25 0 00-1.642.732 2.594 2.594 0 00-.682 1.763v2.852c.001.661.246 1.296.682 1.763a2.25 2.25 0 001.642.732h2.657a2.25 2.25 0 001.642-.732 2.595 2.595 0 00.682-1.763v-2.852c0-.661-.246-1.296-.682-1.763a2.25 2.25 0 00-1.642-.732zm.332 5.347a.372.372 0 01-.098.251.322.322 0 01-.234.105h-2.657a.32.32 0 01-.234-.104.37.37 0 01-.098-.252v-2.852a.37.37 0 01.098-.252.32.32 0 01.234-.104h2.657c.088 0 .172.038.234.105a.372.372 0 01.098.251v2.852zm9.407-5.347h-2.656a2.25 2.25 0 00-1.643.732 2.594 2.594 0 00-.682 1.763v2.852c.001.661.246 1.296.682 1.763a2.25 2.25 0 001.643.732h2.656a2.25 2.25 0 001.643-.732c.435-.468.68-1.102.681-1.763v-2.852c0-.661-.246-1.296-.681-1.763a2.25 2.25 0 00-1.643-.732zm.332 5.347a.37.37 0 01-.097.252.32.32 0 01-.235.104h-2.656a.32.32 0 01-.235-.104.37.37 0 01-.097-.252v-2.852a.37.37 0 01.097-.252.32.32 0 01.235-.104h2.656a.32.32 0 01.235.104.37.37 0 01.097.252v2.852zm-29.55 6.915h-2.657a2.25 2.25 0 00-1.643.731 2.594 2.594 0 00-.681 1.764v2.852c0 .661.245 1.295.681 1.763a2.25 2.25 0 001.643.732h2.656a2.25 2.25 0 001.643-.732c.436-.468.68-1.102.681-1.763v-2.852a2.59 2.59 0 00-.681-1.764 2.25 2.25 0 00-1.643-.731zm.331 5.347a.37.37 0 01-.097.252.32.32 0 01-.235.104h-2.656a.32.32 0 01-.235-.105.37.37 0 01-.097-.252v-2.851a.37.37 0 01.097-.252.32.32 0 01.235-.105h2.656a.32.32 0 01.235.105.37.37 0 01.097.252v2.852zm9.407-5.347h-2.656a2.25 2.25 0 00-1.643.731 2.594 2.594 0 00-.681 1.764v2.852c0 .661.246 1.295.681 1.763a2.25 2.25 0 001.643.732h2.656a2.25 2.25 0 001.643-.732c.436-.468.68-1.102.681-1.763v-2.852a2.59 2.59 0 00-.681-1.764 2.25 2.25 0 00-1.643-.731zm.332 5.347a.37.37 0 01-.097.252.32.32 0 01-.235.104h-2.656a.322.322 0 01-.234-.105.371.371 0 01-.098-.252v-2.851c0-.095.035-.185.098-.252a.322.322 0 01.234-.105h2.656a.32.32 0 01.235.105.37.37 0 01.097.252v2.852zm9.409-5.347h-2.657a2.25 2.25 0 00-1.642.731 2.594 2.594 0 00-.682 1.764v2.852c.001.661.246 1.295.682 1.763a2.25 2.25 0 001.642.732h2.657a2.25 2.25 0 001.642-.732 2.595 2.595 0 00.682-1.763v-2.852a2.59 2.59 0 00-.682-1.764 2.25 2.25 0 00-1.642-.731zm.332 5.347a.372.372 0 01-.098.251.322.322 0 01-.234.105h-2.657a.32.32 0 01-.234-.105.37.37 0 01-.098-.252v-2.851a.37.37 0 01.098-.252.32.32 0 01.234-.105h2.657c.088 0 .172.038.234.105a.372.372 0 01.098.252v2.852zm-19.812 6.915h-2.656a2.25 2.25 0 00-1.643.731 2.594 2.594 0 00-.681 1.764v2.851c0 .662.245 1.296.681 1.764a2.25 2.25 0 001.643.731h2.656a2.25 2.25 0 001.643-.731c.436-.468.68-1.102.681-1.764v-2.851a2.59 2.59 0 00-.681-1.764 2.25 2.25 0 00-1.643-.731zm.332 5.346a.37.37 0 01-.097.252.32.32 0 01-.235.105h-2.656a.32.32 0 01-.235-.105.37.37 0 01-.097-.252v-2.851a.37.37 0 01.097-.252.321.321 0 01.235-.105h2.656c.088 0 .173.038.235.105a.37.37 0 01.097.252v2.851zm9.407-5.346h-2.656a2.25 2.25 0 00-1.643.731 2.594 2.594 0 00-.681 1.764v2.851c0 .662.246 1.296.681 1.764a2.25 2.25 0 001.643.731h2.656a2.25 2.25 0 001.643-.731c.436-.468.68-1.102.681-1.764v-2.851a2.59 2.59 0 00-.681-1.764 2.25 2.25 0 00-1.643-.731zm.332 5.346a.37.37 0 01-.097.252.32.32 0 01-.235.105h-2.656a.322.322 0 01-.234-.105.371.371 0 01-.098-.252v-2.851c0-.095.035-.185.098-.252a.322.322 0 01.234-.105h2.656c.088 0 .173.038.235.105a.37.37 0 01.097.252v2.851zm9.409-5.346h-2.657a2.25 2.25 0 00-1.642.731 2.594 2.594 0 00-.682 1.764v2.851c.001.662.246 1.296.682 1.764a2.25 2.25 0 001.642.731h2.657a2.25 2.25 0 001.642-.731 2.595 2.595 0 00.682-1.764v-2.851a2.59 2.59 0 00-.682-1.764 2.25 2.25 0 00-1.642-.731zm.332 5.346a.372.372 0 01-.098.252.322.322 0 01-.234.105h-2.657a.32.32 0 01-.234-.105.37.37 0 01-.098-.252v-2.851a.37.37 0 01.098-.252.321.321 0 01.234-.105h2.657c.088 0 .172.038.234.105a.372.372 0 01.098.252v2.851zm9.407-17.608h-2.656a2.25 2.25 0 00-1.643.731 2.594 2.594 0 00-.682 1.764v15.113c.001.662.246 1.296.682 1.764a2.25 2.25 0 001.643.731h2.656a2.25 2.25 0 001.643-.731 2.6 2.6 0 00.681-1.764V50.045c0-.662-.246-1.296-.681-1.764a2.25 2.25 0 00-1.643-.731zm.332 17.608a.37.37 0 01-.097.252.32.32 0 01-.235.105h-2.656a.32.32 0 01-.235-.105.37.37 0 01-.097-.252V50.045a.37.37 0 01.097-.252.32.32 0 01.235-.105h2.656a.32.32 0 01.235.105.37.37 0 01.097.252v15.113z"/></g><defs><clipPath id="clip0"><path fill="#fff" transform="translate(.664)" d="M0 0h68v73H0z"/></clipPath></defs></svg>