<svg width="75" height="76" fill="none" xmlns="http://www.w3.org/2000/svg"><path d="M69.297 55.789l-4.914-5.059c-.023-.024-.07-.047-.093-.071a.124.124 0 00-.093-.071l-3.291-3.397-8.137-8.336 15.508-15.912a5.917 5.917 0 001.27-1.926 6.034 6.034 0 000-4.556 5.916 5.916 0 00-1.27-1.926l-8.183-8.384a5.848 5.848 0 00-4.103-1.692c-1.53 0-3 .607-4.103 1.692L40.414 17.908l-4.034 4.156-9.55-9.785-.44-.38-.302-.119-13.676-5.39L4.97 3.444a1.117 1.117 0 00-1.229.261 1.247 1.247 0 00-.278 1.283l2.851 7.576v.024l.07.142L11.6 26.624c.075.302.246.57.487.76l9.55 9.785-5.632 5.771a.876.876 0 00-.163.143l-4.752 4.892a.863.863 0 00-.162.143l-4.937 5.058a.886.886 0 00-.14.167l-1.483 1.496a5.917 5.917 0 00-1.27 1.925 6.033 6.033 0 000 4.557 5.916 5.916 0 001.27 1.925l8.183 8.384a5.76 5.76 0 001.88 1.3 5.645 5.645 0 004.446 0 5.761 5.761 0 001.88-1.3l17.27-17.67 11.52 11.804c.023.024.047.071.07.095l4.937 5.035a5.676 5.676 0 001.869 1.29c.7.297 1.452.448 2.21.444a5.65 5.65 0 002.221-.447 5.765 5.765 0 001.883-1.287l6.56-6.721a6.013 6.013 0 001.691-4.192 6.013 6.013 0 00-1.691-4.192zM41.248 20.425l2.458 2.518a1.142 1.142 0 001.573-.074 1.206 1.206 0 00.05-1.613L42.87 18.74l3.292-3.349 2.457 2.518c.22.21.51.33.811.332a1.24 1.24 0 00.835-.332c.212-.227.33-.53.33-.844 0-.314-.118-.616-.33-.843l-2.48-2.517 3.291-3.373 5.726 5.89a1.176 1.176 0 00.834.357 1.102 1.102 0 00.812-.357 1.191 1.191 0 00.342-.843 1.214 1.214 0 00-.342-.843L52.723 8.67l.811-.855a3.435 3.435 0 012.457-1.042c.922 0 1.806.375 2.458 1.042l8.205 8.407a3.607 3.607 0 011.017 2.518c0 .944-.365 1.85-1.017 2.517L51.124 37.17l-13.12-13.443 3.244-3.3zm-5.91 3.919c.03.1.087.19.162.261l.023.024.811.831 5.726 5.866a.6.6 0 00.255.167l7.186 7.362.811.831.811.832 7.349 7.528-1.646 1.663-7.325-7.505h-.023l-.812-.831v-.024l-.811-.808v-.023l-13.12-13.42v-.023l-.812-.807v-.024l-.811-.831h-.023l-5.054-5.178v-.024a3.607 3.607 0 01-1.02-2.517v-1.876l7.72 7.908.602.618zM50.265 56.43l-7.325-7.505h-.024l-.81-.831v-.024l-.812-.807v-.024L28.175 33.82v-.024l-.812-.807v-.024l-.811-.831h-.023l-5.054-5.201-.07-.072a3.665 3.665 0 01-.95-2.446V22.04c0-.315.123-.617.34-.84.217-.222.512-.347.82-.347h2.318a3.407 3.407 0 012.364.95l.093.095 5.076 5.2.812.832-.047.048.811.83.047-.047 13.12 13.443.811.831.835.855 7.325 7.505-4.914 5.035zm-39.8-48.26a6.197 6.197 0 01-2.411 2.446L6.57 6.626l3.894 1.544zm2.202.855l12.03 4.75v3.919c0 .286.024.572.07.855a4.947 4.947 0 00-.834-.071h-2.319c-.922 0-1.806.375-2.458 1.043a3.607 3.607 0 00-1.019 2.52v2.374c0 .287.024.573.07.855a4.945 4.945 0 00-.835-.071h-3.825l-4.636-12.35a8.822 8.822 0 003.756-3.824zm6.444 60.943a3.542 3.542 0 01-2.457.997 3.542 3.542 0 01-2.457-.997L5.99 61.56a3.608 3.608 0 01-1.017-2.517c0-.944.365-1.85 1.017-2.518l.834-.831 5.726 5.866a1.147 1.147 0 00.823.356 1.124 1.124 0 00.823-.356c.212-.227.33-.529.33-.843 0-.314-.118-.616-.33-.843l-5.75-5.866 3.292-3.373 2.458 2.541c.22.212.51.33.81.333.31-.002.606-.12.835-.333.213-.227.331-.529.331-.843 0-.314-.118-.616-.33-.843l-2.458-2.517 3.269-3.373 2.457 2.518c.214.223.505.351.811.356a1.151 1.151 0 00.835-.356c.212-.222.331-.52.331-.832a1.2 1.2 0 00-.331-.83L18.3 43.937l4.96-5.107 13.12 13.443-17.27 17.694zm19.727-18.525l-.812-.832-13.12-13.442-.811-.831-.835-.855-7.719-7.91h1.831a3.441 3.441 0 012.457 1.046l5.077 5.201.603.618c.031.1.087.19.162.26l.811.832 2.457 2.518c.07.076.158.134.256.166l10.454 10.711.811.831.835.855 7.325 7.505-1.623 1.687-7.348-7.53-.811-.83zm9.782 10.022l2.388-2.47.115-.119 6.445-6.602.116-.119 2.41-2.446 1.832 1.876L50.45 63.341l-1.831-1.876zm19.031 1.021l-6.56 6.722a3.452 3.452 0 01-1.126.777 3.384 3.384 0 01-2.662 0 3.451 3.451 0 01-1.126-.777l-4.103-4.204 11.474-11.756 4.103 4.203c.325.33.583.722.76 1.154a3.618 3.618 0 010 2.728 3.548 3.548 0 01-.76 1.153z" fill="#000"/></svg>