<svg width="75" height="76" fill="none" xmlns="http://www.w3.org/2000/svg"><path d="M55.84 15.452c5.115 4.305 8.737 10.198 10.185 16.818 1.348 6.16.768 12.81-1.738 18.585-4.723 10.97-15.575 18.183-27.295 18.02-11.59-.163-22.399-7.63-26.76-18.673-2.216-5.626-2.767-11.875-1.492-17.813 1.246-5.789 4.158-11.118 8.33-15.23a29.273 29.273 0 0115.025-7.911c6.65-1.262 13.676-.075 19.587 3.31a30.86 30.86 0 014.158 2.894c.464.386 1.087.446 1.536 0 .391-.386.45-1.202 0-1.573C51.51 9.01 44.15 6.353 36.571 6.56a31.003 31.003 0 00-17.486 5.997A32.794 32.794 0 007.971 27.223C5.67 33.295 5.263 40.108 6.755 46.431c2.898 12.35 13.083 22.132 25.325 24.21a31.22 31.22 0 0018.66-2.583c5.52-2.627 10.244-6.976 13.46-12.275 3.347-5.537 4.984-12.128 4.65-18.63-.376-7.287-3.172-14.279-7.895-19.741a31.439 31.439 0 00-3.593-3.533c-.464-.386-1.087-.445-1.536 0-.377.386-.435 1.187.014 1.573zm4.202 52.74l5.07 5.195c.986 1.01 2.522-.564 1.536-1.573l-5.07-5.195c-.986-1.025-2.521.549-1.536 1.573zM13.217 66.62l-5.07 5.195c-.986 1.01.55 2.583 1.535 1.573l5.07-5.195c.986-1.024-.55-2.597-1.535-1.573z" fill="#000"/><path d="M56.608 36.887H41.802c-1.391 0-2.666-.624-3.144-2.049-.247-.727-.16-1.544-.16-2.3v-16.67c0-1.44-2.173-1.44-2.173 0v16.284c0 .727-.043 1.484.03 2.211.289 2.702 2.477 4.706 5.113 4.765 2.304.045 4.622 0 6.926 0h8.229c1.39-.015 1.39-2.241-.015-2.241zM61.476 4.2a30.904 30.904 0 017.896 10.124c.623 1.277 2.507.149 1.884-1.128a32.498 32.498 0 00-8.23-10.583c-.463-.386-1.086-.446-1.535 0-.406.4-.478 1.202-.015 1.588zM11.783 2.614a32.498 32.498 0 00-8.23 10.583c-.622 1.277 1.247 2.405 1.884 1.128a30.674 30.674 0 017.881-10.123c.464-.386.377-1.173 0-1.573-.434-.476-1.086-.386-1.535-.015z" fill="#000"/></svg>