<svg width="71" height="72" fill="none" xmlns="http://www.w3.org/2000/svg"><g clip-path="url(#clip0)"><path d="M68.488 58.556L53.61 43.316a3.461 3.461 0 00-.176-3.277 3.345 3.345 0 00-1.202-1.165 3.247 3.247 0 00-3.947.573l-2.317 2.371-4.742-4.878 10.932-12.123 3.209-2.556a14.139 14.139 0 011.739 2.588 15.876 15.876 0 011.583 8.55c-.02.244.037.489.164.696.128.208.317.367.541.454.224.087.47.096.699.027a1.1 1.1 0 00.573-.41 16.644 16.644 0 003.162-8.71c.516-8.565-6.66-14.85-8.613-16.078l-.367-.225a17.359 17.359 0 01-2.907-2.113 36.925 36.925 0 01-4.313-5.332 1.108 1.108 0 00-.35-.334 1.08 1.08 0 00-1.332.174l-7.19 7.366a1.152 1.152 0 00-.003 1.586c.135.14.303.24.488.293 2.24.632 6.083 2.198 6.87 3.71a6.418 6.418 0 01.349 4.725L34.724 30.285l-11-11.277-1.491-7.603a1.16 1.16 0 00-.44-.709l-10.87-7.965a1.105 1.105 0 00-1.447.122L3.252 9.225a1.168 1.168 0 00-.12 1.483l7.773 11.137c.167.234.414.395.692.45l7.42 1.53 10.807 11.072L2.505 60.67a6.562 6.562 0 00-1.897 3.335 6.676 6.676 0 00.274 3.85 6.5 6.5 0 002.35 3.017A6.262 6.262 0 006.834 72h.154a6.162 6.162 0 002.47-.57 6.295 6.295 0 002.051-1.523L36.716 41.94l4.567 4.68-2.314 2.371a3.436 3.436 0 00-.391 4.368 3.294 3.294 0 001.881 1.323 3.22 3.22 0 002.27-.248l14.89 15.257a7.684 7.684 0 002.496 1.765 7.53 7.53 0 005.944.053 7.675 7.675 0 002.525-1.72 7.892 7.892 0 001.678-2.586 8.045 8.045 0 00-.051-6.09 7.882 7.882 0 00-1.723-2.557zM41.584 9.198l4.998-5.119a32.249 32.249 0 003.912 4.646c1 .898 2.087 1.689 3.243 2.36l.34.21c1.606 1.003 8.008 6.649 7.562 14.015a13.862 13.862 0 01-.868 4.025 16.338 16.338 0 00-4.504-9.389 1.08 1.08 0 00-1.452-.095l-3.309 2.638-2.855-2.925a8.68 8.68 0 00-.6-6.11c-1.049-2.017-4.358-3.491-6.467-4.256zm5.778 12.229l2.528 2.59-10.234 11.348-3.395-3.471 11.101-10.467zM9.891 68.382a4.13 4.13 0 01-1.341.995 4.034 4.034 0 01-1.615.373 4.148 4.148 0 01-1.65-.305 4.23 4.23 0 01-1.405-.937 4.321 4.321 0 01-.918-1.433 4.405 4.405 0 01.063-3.36c.23-.526.56-1 .971-1.395L31.4 36.477l3.777 3.854-25.285 28.05zm27.602-28.9a1.06 1.06 0 00-.105-.071l-5.095-5.198a1.067 1.067 0 00-.07-.108l-11.86-12.15a1.119 1.119 0 00-.572-.315l-7.318-1.507-6.957-9.974 4.864-4.984 9.738 7.132 1.469 7.493c.045.222.153.427.31.587l11.99 12.285c.034.026.069.05.105.072l4.832 4.95a.868.868 0 00.07.108l5.492 5.643-.755.774-.76.78-5.378-5.516zm4.579 12.69a1.059 1.059 0 01-1.476-.04 1.117 1.117 0 01-.042-1.512l3.11-3.186 3.096-3.172 3.117-3.188a1.07 1.07 0 01.76-.322c.21.001.417.066.593.187.175.12.312.292.393.492a1.125 1.125 0 01-.229 1.195l-9.322 9.547zm24.861 15.929a5.551 5.551 0 01-3.881 1.593A5.551 5.551 0 0159.17 68.1L44.435 53.005l7.763-7.956 14.735 15.098a5.696 5.696 0 011.608 3.977 5.696 5.696 0 01-1.608 3.977zM51.664 50.326a1.085 1.085 0 00-.772-.316 1.08 1.08 0 00-.767.33 1.14 1.14 0 00-.013 1.577l13.975 14.318a1.083 1.083 0 001.54-.014 1.14 1.14 0 00.321-.785 1.14 1.14 0 00-.308-.791l-13.976-14.32z" fill="#000"/></g><defs><clipPath id="clip0"><path fill="#fff" transform="translate(.466)" d="M0 0h70.274v72H0z"/></clipPath></defs></svg>