<svg width="74" height="75" fill="none" xmlns="http://www.w3.org/2000/svg"><path d="M28.468 31.311H7.429c-.164-.015-.136-.007.086.022-.014.015-.207-.044-.236-.051-.028-.008-.229-.052-.229-.073.058.021.115.05.165.073a3.436 3.436 0 01-.165-.088c-.028-.015-.236-.125-.236-.154.05.037.093.073.143.11-.05-.044-.092-.088-.135-.132.007.007-.129-.132-.129-.14.121.177.143.199.05.067a1.958 1.958 0 01-.1-.161 354.8 354.8 0 01-.043-.088c-.064-.147-.057-.117.029.088-.022 0-.079-.257-.086-.279 0 .015-.05-.19-.036-.197.007.066.022.124.029.19-.007-.066-.007-.14-.007-.205V8.739c.014-.132.007-.132-.008-.008-.007.03-.007.066-.014.096.007-.066.022-.132.036-.198.007-.03.064-.278.086-.278-.086.197-.093.227-.029.088.029-.06.057-.11.093-.169.014-.03.036-.051.05-.08.071-.103.071-.103 0-.008-.021.022-.036.051-.057.073.043-.05.086-.095.128-.139l.065-.066c.114-.102.093-.088-.072.044 0-.029.208-.139.236-.154l.086-.043c.143-.066.114-.06-.086.029.043 0 .129-.044.179-.059.029-.007.272-.088.286-.066-.222.03-.25.037-.086.022H26.11c.786 0 1.58-.014 2.366 0h.1c.164.015.136.008-.086-.022.014-.022.258.059.286.066.029.008.064.022.093.03.143.058.122.043-.079-.037.015-.015.186.102.208.11.028.014.193.102.193.132-.05-.037-.093-.074-.143-.11.05.044.093.088.136.132l.064.065c.1.118.086.096-.043-.073.05 0 .172.286.2.33.122.198-.057-.088-.028-.088.021 0 .078.256.085.278.008.03.015.066.022.095.028.162.021.132-.007-.095.007 0 .007.205.007.205v12.474c0 2.98.036 5.961 0 8.942v.138c-.015.169-.007.14.021-.087.022.014-.057.263-.064.293-.007.036-.129.322-.029.102.1-.227-.035.059-.05.088-.014.03-.121.242-.15.242.036-.052.072-.096.107-.147-.043.052-.085.095-.128.14l-.065.065c-.114.103-.093.088.072-.044a.746.746 0 01-.157.11c-.022.015-.236.154-.25.14.057-.023.114-.052.164-.074a1.678 1.678 0 01-.179.059c-.028.007-.271.088-.286.066.064-.008.122-.022.186-.03-.072-.007-.136-.007-.207-.007-.75.015-1.466.66-1.43 1.465.036.784.63 1.48 1.43 1.465 2.13-.044 3.824-1.773 3.86-3.955.007-.25 0-.491 0-.74V11.96c0-1.032.014-2.065 0-3.098-.022-1.72-1.044-3.2-2.624-3.779-.543-.198-1.115-.212-1.68-.212H7.688c-1.137 0-2.26.402-3.024 1.296-.7.813-1.001 1.802-1.001 2.871v20.874c0 .755.093 1.472.422 2.16.643 1.356 2.051 2.147 3.495 2.161 3.089.022 6.184 0 9.272 0h11.609c.75 0 1.465-.673 1.43-1.464-.03-.784-.623-1.458-1.423-1.458zm0 9.448H7.579c-1.658.015-3.074 1.026-3.674 2.593-.386 1.018-.243 2.33-.243 3.406V65.99c0 1.114.35 2.183 1.13 2.981.786.806 1.83 1.157 2.923 1.157H26.51c1.208 0 2.495.132 3.624-.395 1.366-.637 2.18-2.102 2.195-3.611V53.27c0-2.85.05-5.698 0-8.547-.036-2.19-1.73-3.919-3.86-3.963-.75-.014-1.466.689-1.43 1.465.036.806.63 1.45 1.43 1.465h.1c.164.015.136.007-.086-.022.014-.022.257.059.286.066.029.007.064.022.093.03.143.058.121.043-.079-.037.015-.015.186.102.208.11.028.014.193.102.193.131-.05-.036-.093-.073-.143-.11.05.044.093.088.135.132l.065.066c.1.117.086.095-.043-.073.05 0 .171.286.2.33.122.197-.057-.088-.029-.088.022 0 .08.256.086.278.007.03.014.066.022.095.028.161.021.132-.008-.095.008 0 .008.205.008.205v18.479c0 .982.014 1.956 0 2.937v.138c-.015.169-.008.14.021-.088.022.015-.057.264-.064.293-.007.037-.129.323-.029.103.1-.227-.078.132-.1.168-.014.03-.036.052-.05.08-.086.125-.071.103.05-.065.007.015-.179.19-.193.205-.207.234.265-.154 0 .007-.057.03-.107.066-.157.103l-.086.044c-.143.066-.114.058.086-.03 0 .023-.25.081-.272.088-.028.008-.064.015-.093.022-.157.03-.128.022.093-.007-.028-.015-.157.007-.2.007-.229.008-.465 0-.693 0H7.437c-.337.008.307.08-.008.008a7.393 7.393 0 01-.186-.044c-.028-.008-.064-.022-.093-.03-.143-.058-.121-.044.08.037-.015.015-.23-.124-.251-.14-.029-.014-.05-.036-.079-.05-.121-.088-.1-.074.065.05-.015.008-.186-.182-.2-.197-.165-.154.078.073.042.073-.05 0-.171-.285-.2-.33-.164-.27.072.308 0-.007-.021-.095-.05-.19-.071-.285-.065-.227.035.102.007.095-.007 0-.007-.205-.007-.205V44.619c-.007-.3 0 .103-.022.088-.021-.015.057-.264.065-.293.007-.03.021-.066.028-.095.057-.147.043-.125-.036.08-.021-.022.165-.3.186-.337.143-.241-.043.081-.05.066-.007-.014.179-.19.193-.205.208-.234-.264.154 0-.007.079-.051.165-.095.243-.146.265-.169-.3.073.007 0 .065-.015.122-.037.186-.052.029-.007.065-.014.093-.022.158-.029.129-.022-.093.008 0-.008.2-.008.2-.008h20.946c.75 0 1.466-.673 1.43-1.465-.05-.798-.644-1.472-1.444-1.472zm9.965-26.491h27.243c1.258 0 2.517.036 3.775 0h.057c.75 0 1.466-.674 1.43-1.465-.036-.791-.63-1.465-1.43-1.465H42.265c-1.259 0-2.517-.037-3.775 0h-.057c-.75 0-1.466.674-1.43 1.465.036.79.63 1.465 1.43 1.465zm19.845 10.576H38.433c-.75 0-1.466.674-1.43 1.465.036.79.63 1.464 1.43 1.464h19.845c.75 0 1.465-.673 1.43-1.464-.036-.791-.63-1.465-1.43-1.465zM38.433 50.156h27.243c1.258 0 2.517.037 3.775 0h.057c.75 0 1.466-.674 1.43-1.465-.036-.79-.63-1.464-1.43-1.464H42.265c-1.259 0-2.517-.037-3.775 0h-.057c-.75 0-1.466.673-1.43 1.464.036.791.63 1.465 1.43 1.465zm19.845 10.576H38.433c-.75 0-1.466.674-1.43 1.465.036.791.63 1.465 1.43 1.465h19.845c.75 0 1.465-.674 1.43-1.465-.036-.79-.63-1.465-1.43-1.465z" fill="#000"/></svg>