<svg width="86" height="88" fill="none" xmlns="http://www.w3.org/2000/svg"><path d="M43.014 7.333C23.259 7.333 7.226 23.76 7.226 44c0 20.24 16.033 36.667 35.788 36.667C62.768 80.667 78.8 64.24 78.8 44c0-20.24-16.033-36.666-35.787-36.666zm0 70.4c-18.18 0-32.925-15.106-32.925-33.733 0-18.627 14.745-33.733 32.925-33.733S75.938 25.374 75.938 44c0 18.627-14.744 33.734-32.924 33.734z" fill="#000"/><path d="M36.286 54.707l-11.739-11.88-2.004 2.053 13.743 14.08 27.198-27.867-2.004-2.053-25.194 25.667z" fill="#000"/></svg>