<svg version="1.1" id="Слой_1" xmlns="http://www.w3.org/2000/svg" x="0" y="0" viewBox="0 0 80 81" xml:space="preserve"><style>.st0{fill:#111010}</style><path class="st0" d="M40 51.9c-6.1 0-11-4.9-11-11s4.9-11 11-11 11 4.9 11 11-4.9 11-11 11zm0-20c-5 0-9 4-9 9s4 9 9 9 9-4 9-9-4-9-9-9z"/><path class="st0" d="M40.3 78.5c-2 0-4-.8-5.4-2.2-1.4-1.4-2.2-3.4-2.2-5.4v-.3c0-.9-.3-1.8-.8-2.5s-1.3-1.3-2.1-1.6c-.9-.4-1.8-.5-2.7-.3-.9.2-1.7.6-2.3 1.2l-.2.2c-.7.7-1.6 1.3-2.5 1.7-1.9.8-4 .8-5.9 0-.9-.4-1.8-.9-2.5-1.7-.7-.7-1.3-1.6-1.7-2.5-.4-.9-.6-1.9-.6-2.9s.2-2 .6-2.9.9-1.8 1.7-2.5l.2-.2c.6-.6 1-1.4 1.2-2.3.2-.9.1-1.8-.3-2.6s-.9-1.5-1.7-2c-.7-.5-1.6-.7-2.5-.7H10c-2 0-4-.8-5.4-2.2-1.4-1.4-2.2-3.4-2.2-5.4 0-2 .8-4 2.2-5.4C6 34.3 8 33.5 10 33.5h.3c.9 0 1.8-.3 2.5-.8s1.3-1.3 1.6-2.1c.4-.9.5-1.8.3-2.7-.2-.9-.6-1.7-1.2-2.3l-.2-.2c-.7-.7-1.3-1.6-1.7-2.5-.4-.9-.6-1.9-.6-2.9s.2-2 .6-2.9.9-1.8 1.7-2.5c.7-.7 1.6-1.3 2.5-1.7 1.9-.8 4-.8 5.9 0 .9.4 1.8.9 2.5 1.7l.2.2c.6.6 1.4 1 2.3 1.2.9.2 1.8.1 2.6-.3.1-.1.3-.1.4-.1h.1c.7-.4 1.4-.9 1.8-1.6.5-.7.7-1.6.7-2.5v-.6c0-2 .8-4 2.2-5.4C36 4 38 3.2 40 3.2s4 .8 5.4 2.2c1.4 1.4 2.2 3.4 2.2 5.4v.3c0 .9.3 1.7.7 2.5.5.7 1.2 1.3 2 1.7.8.4 1.7.5 2.6.3.9-.2 1.7-.6 2.3-1.2l.2-.2c.7-.7 1.6-1.3 2.5-1.7 1.9-.8 4-.8 5.9 0 .9.4 1.8.9 2.5 1.7.7.7 1.3 1.6 1.7 2.5.4.9.6 1.9.6 2.9s-.2 2-.6 2.9c-.4.9-.9 1.8-1.7 2.5l-.2.2c-.6.6-1 1.4-1.2 2.3s-.1 1.8.3 2.6c.1.1.1.3.1.4v.1c.4.7.9 1.4 1.6 1.8.7.5 1.6.7 2.5.7h.6c2 0 4 .8 5.4 2.2 1.4 1.4 2.2 3.4 2.2 5.4 0 2-.8 4-2.2 5.4-1.4 1.6-3.4 2.4-5.4 2.4h-.3c-.9 0-1.7.3-2.5.7s-1.3 1.2-1.7 2c-.4.8-.5 1.7-.3 2.6.2.9.6 1.7 1.2 2.3l.2.2c.7.7 1.3 1.6 1.7 2.5.4.9.6 1.9.6 2.9s-.2 2-.6 2.9c-.4.9-.9 1.8-1.7 2.5-.7.7-1.6 1.3-2.5 1.7-1.9.8-4 .8-5.9 0-.9-.4-1.8-.9-2.5-1.7l-.2-.2c-.6-.6-1.4-1-2.3-1.2-.9-.2-1.8-.1-2.6.3s-1.5.9-2 1.7c-.5.7-.7 1.6-.7 2.5v.6c0 2-.8 4-2.2 5.4-1.5 1.5-3.4 2.3-5.4 2.3zM27.8 64.1c.9 0 1.8.2 2.6.6 1.2.4 2.2 1.2 3 2.3.8 1.1 1.2 2.3 1.2 3.6v.3c0 1.5.6 2.9 1.7 4s2.5 1.7 4 1.7 2.9-.6 4-1.7 1.7-2.5 1.7-4v-.6c0-1.3.4-2.5 1.1-3.6.7-1.1 1.7-1.9 2.9-2.4s2.5-.7 3.8-.4c1.3.2 2.5.8 3.4 1.7l.2.2c.5.5 1.1.9 1.8 1.2 1.4.6 3 .6 4.3 0 .7-.3 1.3-.7 1.8-1.2s.9-1.1 1.2-1.8c.3-.7.4-1.4.4-2.2s-.1-1.5-.4-2.2c-.3-.7-.7-1.3-1.2-1.8l-.2-.2c-.9-.9-1.5-2.1-1.8-3.4-.2-1.3-.1-2.6.4-3.8.5-1.2 1.3-2.2 2.4-2.9 1.1-.7 2.3-1.1 3.6-1.1h.3c1.5 0 2.9-.6 4-1.7s1.7-2.5 1.7-4-.6-2.9-1.7-4-2.5-1.7-4-1.7h-.6c-1.3 0-2.5-.4-3.6-1.1-1.1-.7-1.9-1.7-2.4-2.9-.1-.1-.1-.3-.1-.4v-.1c-.5-1.1-.6-2.4-.4-3.6.2-1.3.8-2.5 1.8-3.4l.2-.2c.5-.5.9-1.1 1.2-1.8.3-.7.4-1.4.4-2.2s-.1-1.5-.4-2.2c-.3-.7-.7-1.3-1.2-1.8s-1.1-.9-1.8-1.2c-1.4-.6-3-.6-4.3 0-.7.3-1.3.7-1.8 1.2l-.2.2c-.9.9-2.1 1.5-3.4 1.8-1.3.2-2.6.1-3.8-.4-1.2-.5-2.1-1.3-2.8-2.4-.7-1.1-1.1-2.3-1.1-3.6v-.3c0-1.5-.6-2.9-1.7-4s-2.5-1.7-4-1.7-2.9.6-4 1.7-1.7 2.5-1.7 4v.6c0 1.3-.4 2.5-1.1 3.6-.7 1.1-1.7 1.9-2.9 2.4-.1.1-.3.1-.4.1h-.1c-1.1.5-2.4.6-3.6.4-1.3-.2-2.5-.8-3.4-1.7l-.2-.2c-.5-.5-1.1-.9-1.8-1.2-1.4-.6-3-.6-4.3 0-.7.3-1.3.7-1.8 1.2s-.9 1.1-1.2 1.8-.4 1.4-.4 2.2.1 1.5.4 2.2c.3.7.7 1.3 1.2 1.8l.2.2c.9.9 1.5 2.1 1.8 3.4.2 1.3.1 2.6-.4 3.8-.4 1.2-1.2 2.2-2.3 3-1.1.8-2.3 1.2-3.6 1.2h-.3c-1.5 0-2.9.6-4 1.7s-1.7 2.5-1.7 4 .6 2.9 1.7 4 2.5 1.7 4 1.7h.6c1.3 0 2.5.4 3.6 1.1 1.1.7 1.9 1.7 2.4 2.9s.7 2.5.4 3.8c-.2 1.3-.8 2.5-1.7 3.4l-.4.1c-.5.5-.9 1.1-1.2 1.8-.3.7-.4 1.4-.4 2.2 0 .7.1 1.5.4 2.2s.7 1.3 1.2 1.8 1.1.9 1.8 1.2c1.4.6 3 .6 4.3 0 .7-.3 1.3-.7 1.8-1.2l.2-.2c.9-.9 2.1-1.5 3.4-1.8h1.3zm36.9-13.2z"/></svg>