<svg width="80" height="80" fill="none" xmlns="http://www.w3.org/2000/svg"><path fill-rule="evenodd" clip-rule="evenodd" d="M74.04 12.626a1 1 0 010 1.414L40.707 47.374a1 1 0 01-1.414 0l-10-10a1 1 0 011.414-1.414L40 45.252l32.626-32.626a1 1 0 011.414 0z" fill="#fff"/><path fill-rule="evenodd" clip-rule="evenodd" d="M16.667 11A5.667 5.667 0 0011 16.667v46.666A5.667 5.667 0 0016.667 69h46.666A5.667 5.667 0 0069 63.333V40a1 1 0 112 0v23.333A7.667 7.667 0 0163.333 71H16.667A7.667 7.667 0 019 63.333V16.667A7.667 7.667 0 0116.667 9h36.666a1 1 0 110 2H16.667z" fill="#fff"/></svg>