<svg width="80" height="80" fill="none" xmlns="http://www.w3.org/2000/svg"><path fill-rule="evenodd" clip-rule="evenodd" d="M2.333 10a1 1 0 011-1h50a1 1 0 011 1v43.333a1 1 0 01-1 1h-50a1 1 0 01-1-1V10zm2 1v41.333h48V11h-48z" fill="#fff"/><path fill-rule="evenodd" clip-rule="evenodd" d="M52.333 26.667a1 1 0 011-1h13.334a1 1 0 01.707.293l10 10a1 1 0 01.293.707v16.666a1 1 0 01-1 1H53.333a1 1 0 01-1-1V26.667zm2 1v24.666h21.334V37.081l-9.415-9.414H54.334zm-36 26.666a7.333 7.333 0 100 14.667 7.333 7.333 0 000-14.667zM9 61.667a9.333 9.333 0 1118.667 0 9.333 9.333 0 01-18.667 0z" fill="#fff"/><path fill-rule="evenodd" clip-rule="evenodd" d="M61.667 54.333a7.333 7.333 0 100 14.667 7.333 7.333 0 000-14.667zm-9.334 7.334a9.333 9.333 0 1118.667 0 9.333 9.333 0 01-18.667 0z" fill="#fff"/></svg>