<svg width="75" height="56" fill="none" xmlns="http://www.w3.org/2000/svg"><path fill-rule="evenodd" clip-rule="evenodd" d="M64.187 5.968a19 19 0 00-29.623 18.665 1 1 0 01-.487 1.028L5.867 41.948a6.07 6.07 0 106.07 10.516l28.21-16.287a1 1 0 011.135.093 19 19 0 0030.976-16.323l-14.095 8.138a4.333 4.333 0 01-5.86-1.57l-.005-.009-3.776-6.54a4.333 4.333 0 011.57-5.86l.009-.005 14.086-8.133zM55.022.617a21 21 0 0111.604 4.69 1 1 0 01-.134 1.64l-15.35 8.862-.033.019a2.333 2.333 0 00-.848 3.151l.003.004 3.761 6.514a2.333 2.333 0 003.151.848l.005-.002 15.382-8.881a1 1 0 011.486.704 21 21 0 01-33.49 20.082L12.938 54.197a8.071 8.071 0 01-8.071-13.98L32.488 24.27A21 21 0 0155.022.617z" fill="#fff"/></svg>