<svg width="471" height="577" fill="none" xmlns="http://www.w3.org/2000/svg"><path d="M404.596 536.449c92.563-53.474 92.563-140.078 0-193.478-92.563-53.399-242.627-53.436-335.178 0-92.551 53.437-92.563 140.078 0 193.515 92.563 53.437 242.615 53.399 335.178-.037z" fill="#F5F5F5"/><path d="M189.499 478.292l-5.34 3.085 175.45 27.294v-3.915l-170.11-26.464zM419.848 525.1c11.943 6.975 11.943 18.275 0 25.25-11.944 6.975-31.309 6.975-43.265 0s-11.944-18.275 0-25.25c11.944-6.976 31.321-7.025 43.265 0z" fill="#E0E0E0"/><path d="M237.236 423.504c28.893 16.875 28.893 44.219 0 61.081-28.892 16.863-75.725 16.863-104.606 0-28.88-16.862-28.88-44.206 0-61.081 28.881-16.875 75.676-16.813 104.606 0z" fill="#E0E0E0"/><path d="M113.835 426.503c-8.227-.719-17.346-1.239-23.85 3.84-3.06 2.367-5.18 5.7-7.508 8.785a71.645 71.645 0 01-8.326 9.218 20.274 20.274 0 01-5.29 3.816 16.53 16.53 0 01-6.927 1.239c-9.911 0-19.117-5.477-26.749-11.87-2.044-1.71-4.126-3.717-4.658-6.294-.893-4.299 2.738-8.202 6.442-10.556 10.432-6.641 23.417-10.457 35.286-13.628a140.746 140.746 0 0138.879-5.241c8.18.156 16.319 1.207 24.271 3.134 4.807 1.165 11.77 2.602 15.487 6.108a5.798 5.798 0 011.822 6.022c-.93 2.478-3.779 3.457-6.332 4.051-10.58 2.503-21.83 2.305-32.547 1.376zM385.851 188.1v4.733c0 1.499-1.054 2.106-2.342 1.351l-4.572-2.639v-10.148l4.572 2.639a5.212 5.212 0 012.342 4.064zm-6.914 155.305l19.08 11.027a5.15 5.15 0 012.342 4.051v4.745c0 1.487-1.041 2.094-2.342 1.351l-19.08-11.015v-10.159zm21.409-159.381v4.745c0 1.487-1.041 2.094-2.341 1.351l-19.081-11.027v-10.147l19.081 11.027a5.15 5.15 0 012.341 4.051zm-10.308 53.635l21.682 12.526a5.194 5.194 0 012.342 4.051v4.746c0 1.486-1.053 2.094-2.342 1.35l-21.682-12.513a5.193 5.193 0 01-2.342-4.064v-4.733c0-1.561 1.041-2.168 2.342-1.363zm-11.101 55.902l19.08 11.027a5.153 5.153 0 012.342 4.051v4.746c0 1.486-1.041 2.094-2.342 1.35l-19.08-11.027v-10.147zm21.409-159.381v4.733c0 1.499-1.041 2.106-2.341 1.363l-19.081-11.027v-10.147l19.081 11.027a5.134 5.134 0 012.341 4.051zm-21.409 283.997l19.08 11.027a5.15 5.15 0 012.342 4.051V438c0 1.487-1.041 2.094-2.342 1.351l-19.08-11.027v-10.147zm43.141-134.156v4.733c0 1.499-1.041 2.106-2.342 1.351l-21.669-12.514a5.164 5.164 0 01-2.354-4.051v-4.746c0-1.486 1.053-2.094 2.354-1.35l21.669 12.513a5.174 5.174 0 012.342 4.064zm-21.732-50.153v4.745c0 1.487-1.041 2.094-2.341 1.35l-19.081-11.014v-10.16l19.081 11.027a5.162 5.162 0 012.341 4.052zm1.859 80.607v-4.733c0-1.499 1.053-2.106 2.341-1.35l21.682 12.513a5.188 5.188 0 012.342 4.052v4.745c0 1.487-1.053 2.094-2.342 1.35l-21.682-12.513a5.215 5.215 0 01-2.341-4.064zm9.515 120.254l-21.682-12.513a5.193 5.193 0 01-2.342-4.064v-4.733c0-1.499 1.041-2.106 2.342-1.35l21.682 12.513a5.194 5.194 0 012.342 4.052v4.782c0 1.45-1.053 2.057-2.342 1.313zm-9.627-314.599l21.682 12.514a5.153 5.153 0 012.342 4.051v4.746c0 1.486-1.041 2.094-2.342 1.35l-21.682-12.513a5.2 5.2 0 01-2.341-4.064v-4.733c0-1.524 1.053-2.106 2.341-1.351zm-12.055 17.78l21.682 12.513a5.209 5.209 0 012.342 4.064v4.733c0 1.499-1.053 2.106-2.342 1.35l-21.682-12.513a5.162 5.162 0 01-2.342-4.052v-4.745c0-1.487 1.041-2.094 2.342-1.35zm0 49.843l21.682 12.526a5.171 5.171 0 012.342 4.052v4.745c0 1.487-1.053 2.094-2.342 1.35l-21.682-12.525a5.162 5.162 0 01-2.342-4.052v-4.745c0-1.487 1.041-2.094 2.342-1.351zm21.682 147.289l-21.682-12.526a5.128 5.128 0 01-2.342-4.052v-4.745c0-1.487 1.041-2.094 2.342-1.35l21.682 12.526a5.16 5.16 0 012.342 4.051v4.745c0 1.487-1.053 2.094-2.342 1.351zm-32.783 33.291l19.08 11.027a5.119 5.119 0 012.342 4.051v4.733c0 1.499-1.041 2.106-2.342 1.363l-19.08-11.027v-10.147zM176.402 82.64v4.732a5.202 5.202 0 002.342 4.089l4.572 2.639V83.928l-4.572-2.64c-1.288-.743-2.342-.148-2.342 1.351zm6.914 163.32l-19.093-11.014c-1.239-.756-2.341-.149-2.341 1.35v4.733a5.204 5.204 0 002.341 4.064l19.093 11.014V245.96zM161.882 61.837v4.733a5.2 5.2 0 002.341 4.064l19.093 11.014V71.501l-19.093-11.015c-1.288-.755-2.341-.148-2.341 1.351zm10.333 65.554l-21.682-12.526c-1.239-.744-2.341-.136-2.341 1.35v4.746a5.169 5.169 0 002.341 4.051l21.682 12.526c1.301.743 2.342.136 2.342-1.35v-4.746a5.16 5.16 0 00-2.342-4.051zm11.101 68.725l-19.093-11.014c-1.239-.756-2.341-.149-2.341 1.35v4.733a5.2 5.2 0 002.341 4.064l19.093 11.015v-10.148zM161.882 11.98v4.746a5.166 5.166 0 002.341 4.113l19.093 11.027V21.657L164.223 10.63c-1.288-.743-2.341-.136-2.341 1.35zm21.434 308.752l-19.093-11.015c-1.239-.756-2.341-.148-2.341 1.351v4.733a5.2 5.2 0 002.341 4.063l19.093 11.015v-10.147zm-43.153-183.987v4.745a5.197 5.197 0 002.342 4.052l21.682 12.513c1.3.756 2.341.149 2.341-1.35v-4.733a5.175 5.175 0 00-2.341-4.064l-21.682-12.514c-1.289-.743-2.342-.136-2.342 1.351zm21.719-25.064v4.733a5.19 5.19 0 002.341 4.063l19.093 11.015v-10.147l-19.093-11.015c-1.288-.756-2.341-.148-2.341 1.351zm-1.895 78.414v-4.733a5.186 5.186 0 00-2.342-4.064l-21.682-12.513c-1.301-.744-2.342-.149-2.342 1.35v4.745a5.152 5.152 0 002.342 4.052l21.682 12.513c1.351.756 2.342.149 2.342-1.35zm-9.454 109.339l21.682 12.563c1.301.743 2.342.136 2.342-1.35v-4.845a5.16 5.16 0 00-2.342-4.051l-21.682-12.514c-1.239-.756-2.341-.148-2.341 1.351v4.733a5.202 5.202 0 002.341 4.113zm21.682-271.793l-21.682-12.513c-1.239-.744-2.341-.136-2.341 1.35v4.746a5.188 5.188 0 002.341 4.051l21.682 12.514c1.301.755 2.342.148 2.342-1.35v-4.734a5.177 5.177 0 00-2.342-4.064zm0 49.844l-21.682-12.513c-1.239-.744-2.341-.137-2.341 1.35v4.745a5.188 5.188 0 002.341 4.052l21.682 12.526c1.301.743 2.342.136 2.342-1.363v-4.733a5.177 5.177 0 00-2.342-4.064zm-21.682 122.249l21.682 12.526c1.301.743 2.342.136 2.342-1.363v-4.733a5.18 5.18 0 00-2.342-4.063l-21.682-12.514c-1.239-.743-2.341-.136-2.341 1.35v4.746a5.185 5.185 0 002.341 4.051zm32.783 71.154l-19.093-11.027c-1.239-.743-2.341-.136-2.341 1.351v4.745c.046.812.282 1.601.688 2.305a5.204 5.204 0 001.653 1.747l19.093 11.014v-10.135z" fill="#E0E0E0"/><path d="M359.609 322.603l-156.408 90.345V34.914l156.408 90.358v197.331z" fill="#FFC100"/><path opacity=".4" d="M359.609 322.603l-156.408 90.345V34.914l156.408 90.358v197.331z" fill="#000"/><path d="M203.202 412.948l156.407-90.345v180.616l-156.407-90.271z" fill="#E0E0E0"/><path d="M203.202 412.948l-7.31 4.2V30.689l7.31 4.225v378.034z" fill="#FFC100"/><path opacity=".4" d="M203.202 412.948l-7.31 4.2V30.689l7.31 4.225v378.034z" fill="#fff"/><path opacity=".1" d="M203.202 412.948l-7.31 4.2V30.689l7.31 4.225v378.034z" fill="#000"/><path d="M195.892 417.148l-12.576-7.26V4.175l188.422 108.782-.012 405.712-12.117-7V125.272L195.892 30.689v386.459z" fill="#FFC100"/><path opacity=".7" d="M195.892 417.148l-12.576-7.26V4.175l188.422 108.782-.012 405.712-12.117-7V125.272L195.892 30.689v386.459z" fill="#fff"/><path d="M183.314 4.175l188.422 108.782 7.199-4.188L190.513 0l-7.199 4.175z" fill="#FFC100"/><path opacity=".85" d="M183.314 4.175l188.422 108.782 7.199-4.188L190.513 0l-7.199 4.175z" fill="#fff"/><path d="M371.738 518.669V112.957l7.199-4.188.111 405.676-7.31 4.224z" fill="#FFC100"/><path opacity=".6" d="M378.937 108.769l.111 405.676-7.31 4.224V112.957" fill="#fff"/><path d="M174.73 453.24c.273 2.948-1.648 10.63-1.648 10.63s-1.635 2.478-6.294 3.618l-.322-11.151 8.264-3.097z" fill="#263238"/><path d="M166.788 467.426l-9.193-4.647-1.016-8.933 10.023 7.149.186 6.431z" fill="#000"/><path d="M159.801 440.367l.185-1.871c-1.412.446-5.117 10.89-10.134 17.556-4.585 6.083-12.217 8.673-14.955 11.225-3.655 3.382 1.549 9.267 11.448 8.673 4.956-.298 12.576-2.23 15.017-5.142 2.44-2.912 4.014-8.673 5.971-10.829 1.958-2.155 6.195-4.249 7.372-6.814.669-1.412.422-4.683 0-7.434-.371-2.564-.78-5.377-1.66-5.241 0 .31-.21 1.574-.21 1.574-.298 1.239-1.946 2.552-7.087 1.995-2.28-.273-6.356-1.153-5.947-3.692z" fill="#455A64"/><path d="M261.198 396.123c1.573 2.168 4.349 17.345 4.349 17.345s-3.631 5.303-5.724 6.914l-6.728-14.273 8.103-9.986z" fill="#263238"/><path d="M259.822 420.32l-12.34-2.837-4.584-9.503 12.848 3.58 4.076 8.76z" fill="#000"/><path d="M252.005 386.496c.706-.533 1.722.855 4.187 3.06 1.735 1.549 5.477 3.011 5.477 7.434 0 3.184-2.119 7.112-4.151 10.408-2.032 3.295-2.329 6.256-2.317 10.94 0 5.662 1.041 9.131-5.922 14.173-5.575 4.027-16.9 4.77-19.39 2.478-4.262-3.989 5.687-9.465 7.31-17.63 2.23-11.262 2.478-13.146 2.168-21.063l12.638-9.8z" fill="#455A64"/><path d="M143.05 248.066c5.427 2.937 21.905 3.717 45.024-1.239l-2.738 66.905s20.257 14.372 26.489 22.214c6.232 7.843 36.203 45.941 36.203 45.941l4.138 4.795c2.564 2.974 1.239 6.988-1.735 9.553-2.862 2.354-6.591 4.014-9.379 1.585l-3.419-2.973s-66.979-51.628-69.382-54.924c-2.404-3.295-8.041-11.472-14.125-28.731-7.855-22.141-9.168-38.173-11.076-63.126z" fill="#FFA8A7"/><path d="M143.062 248.066c14.632 6.716 44.045 4.423 44.045 4.423l-1.35 61.144a128.695 128.695 0 0120.666 15.623c8.772 8.45 22.153 26.018 22.153 26.018-4.585 12.898-17.643 18.919-17.643 18.919s-27.468-19.241-42.831-30.131c-8.041-5.687-14.087-8.859-16.503-18.114a179.625 179.625 0 01-4.386-21.546c-1.314-7.991-1.946-17.085-2.714-23.813a212.914 212.914 0 01-1.437-32.523z" fill="#FFC100"/><path opacity=".4" d="M143.062 248.066c14.632 6.716 44.045 4.423 44.045 4.423l-1.35 61.144a128.695 128.695 0 0120.666 15.623c8.772 8.45 22.153 26.018 22.153 26.018-4.585 12.898-17.643 18.919-17.643 18.919s-27.468-19.241-42.831-30.131c-8.041-5.687-14.087-8.859-16.503-18.114a179.625 179.625 0 01-4.386-21.546c-1.314-7.991-1.946-17.085-2.714-23.813a212.914 212.914 0 01-1.437-32.523z" fill="#000"/><path opacity=".1" d="M167.495 327.398l2.329-33.799 8.673-8.066 7.434 19.885-.186 8.215a137.712 137.712 0 0113.814 9.651l-1.239 2.986-7.049 17.036s2.477 11.622 1.437 18.039a10802.038 10802.038 0 01-24.272-17.097l-.941-16.85z" fill="#000"/><path d="M159.33 441.841v-1.388c1.065-12.501-.657-81.239-.583-99.786.087-20.084 3.717-68.738 3.717-68.738s-11.869-15.5-19.513-23.863c7.223 8.264 43.648 4.077 45.841-11.832 2.986 6.269 13.629 12.737 14.509 33.341 1.239 26.254-17.346 72.678-17.346 72.678.706 3.506 3.89 18.2 2.02 31.767-2.949 21.409-13.53 59.26-14.645 64.426l-.681 4.399c-2.317 2.874-11.647 2.44-13.319-1.004z" fill="#FFA8A7"/><path d="M158.487 303.931l1.066-27.418s-11.04-2.874-15.512-12.154a87.879 87.879 0 01-.991-16.293s9.651 4.473 23.218 1.165a50.798 50.798 0 0022.648-12.997s2.602 2.565 7.942 10.531c2.552 3.804 6.864 13.629 7.236 21.298.854 17.507-4.733 36.191-4.733 36.191-2.85 13.703-11.498 38.643-11.498 38.643s3.296 18.163 1.635 31.185c-1.66 13.021-6.925 27.74-6.925 27.74s-14.682 4.956-24.334-.793c0 0-.458-45.284-.632-62.952-.173-17.667.88-34.146.88-34.146z" fill="#FFC100"/><path opacity=".3" d="M158.487 303.931l1.066-27.418s-11.04-2.874-15.512-12.154a87.879 87.879 0 01-.991-16.293s9.651 4.473 23.218 1.165a50.798 50.798 0 0022.648-12.997s2.602 2.565 7.942 10.531c2.552 3.804 6.864 13.629 7.236 21.298.854 17.507-4.733 36.191-4.733 36.191-2.85 13.703-11.498 38.643-11.498 38.643s3.296 18.163 1.635 31.185c-1.66 13.021-6.925 27.74-6.925 27.74s-14.682 4.956-24.334-.793c0 0-.458-45.284-.632-62.952-.173-17.667.88-34.146.88-34.146z" fill="#000"/><path d="M108.73 189.03a11.15 11.15 0 01-.669-13.914c5.092-7.967 17.11-4.869 17.11-4.869l3.209-5.167a9.413 9.413 0 00-3.717-.223 18.852 18.852 0 01-6.641-.941 10.09 10.09 0 01-5.637-4.027 5.32 5.32 0 01.595-6.505 8.396 8.396 0 01-8.4-9.391 3.524 3.524 0 01.768-1.982 5.076 5.076 0 012.255-1.153 16.814 16.814 0 006.058-3.716c3.432-3.284 4.882-7.137 9.627-10.222a24.387 24.387 0 0113.529-4.014c5.44 0 10.346 1.561 14.026 6.058 6.071 0 13.975 3.606 19.377 18.585 5.315 14.744 3.382 31.965-6.666 47.366-6.628 10.159-33.055 27.034-51.949 20.381-18.895-6.654-10.953-25.796-2.875-26.266z" fill="#263238"/><path d="M140.25 185.04c-14.67 2.726-15.512 10.048-16.256 16.454-1.92 16.688 1.388 44.255 2.54 50.326 0 0 19.724-6.021 19.501-7-.223-.979-5.785-59.78-5.785-59.78z" fill="#FFA8A7"/><path d="M140.014 242.144s-6.641-1.549-11.658 0c0 0 4.125-4.287 13.554-1.499l-1.896 1.499z" fill="#F28F8F"/><path d="M141.699 246.877a99.754 99.754 0 01-4.956-16.466c-9.8-5.042-11.944-12.563-9.912-19.613 4.213-14.508 8.314-21.57 12.08-25.758 2.924-2.069 13.331-4.956 13.331-4.956 1.859-.297 18.696-2.416 23.838-2.837a18.585 18.585 0 016.096 8.351c.991 3.072 2.726 5.687 2.726 16.193l-1.958 18.783s-.52 5.625 1.45 8.896c1.97 3.27 9.998 9.255 13.703 17.345 0 0-.446 12.315-23.095 17.457-18.423 4.188-32.089-2.478-32.089-2.478a92.25 92.25 0 01-1.214-14.917z" fill="#F5F5F5"/><path d="M126.311 217.712a3.88 3.88 0 012.478-1.438c2.131-.26 4.151.855 6.121 1.735 3.642 1.623 7.83 2.478 11.634 1.301 4.113-1.326 7.433-4.956 11.708-5.328 4.076-.322 7.719 2.478 10.717 5.216 4.435 4.126 8.549 8.673 13.629 12.006a67.266 67.266 0 006.764 3.804l.991 1.04.199.211c.755.805 1.536 1.66 2.292 2.552l.285.347.817.991.397.508.681.905.409.57.632.941.372.583c.223.346.421.693.632 1.053l.297.52c.285.533.57 1.078.818 1.636a9.303 9.303 0 01-.583 2.477 15.78 15.78 0 01-1.945 3.618c-.334.459-.694.917-1.102 1.388-3.11 3.556-8.847 7.545-19.452 9.912a54.996 54.996 0 01-12.799 1.375c-1.449 0-2.837-.087-4.163-.211a55.5 55.5 0 01-3.717-.458 55.662 55.662 0 01-4.286-.855 37.786 37.786 0 01-7.1-2.379 85.726 85.726 0 01-1.09-10.159c0-.731-.074-1.487-.099-2.28-.025-.793 0-1.623 0-2.478-1.239-3.506-2.379-6.69-3.221-9.466a67.432 67.432 0 01-.583-2.007 44.234 44.234 0 01-1.152-4.956c-6.765-3.382-9.887-7.917-10.581-12.674z" fill="#EBEBEB"/><path d="M119.868 142.952c-1.077 2.416-2.762 6.282 1.054 21.447 3.233 12.848 8.14 15.09 10.456 15.524 2.317.434 6.195-1.028 8.971-2.094l4.534 8.054c-.409 3.469-1.598 10.456.694 14.867 6.666-5.08 13.48-11.225 18.151-20.839l-7.31-15.995s4.237 2.032 6.505-2.825c2.093-4.473 1.313-8.202-1.797-10.197a5.12 5.12 0 00-4.915-.329 5.112 5.112 0 00-2.915 3.972c-.669 3.828-4.386 4.113-5.414-1.574-.31-1.734-1.772-11.151-8.475-13.244-7.917 9.973-18.002 8.573-19.539 3.233z" fill="#FFA8A7"/><path d="M137.189 156.061a1.749 1.749 0 003.454-.355 1.738 1.738 0 00-.279-.965 1.749 1.749 0 00-1.762-.774 1.777 1.777 0 00-1.141.754 1.792 1.792 0 00-.272 1.34z" fill="#263238"/><path d="M135.207 169.689a1.669 1.669 0 00.672 1.109 1.687 1.687 0 001.26.304 1.737 1.737 0 001.455-1.291 1.732 1.732 0 00-.657-1.83 1.737 1.737 0 00-2.73 1.708z" fill="#B16668"/><path d="M122.47 153.682l2.763-3.036a1.966 1.966 0 00-1.425-.609 1.969 1.969 0 00-1.425.609 2.157 2.157 0 00.087 3.036zm15.289-4.845l3.779 1.586a1.976 1.976 0 00.063-1.56 1.967 1.967 0 00-1.091-1.116 2.147 2.147 0 00-2.751 1.09zm-13.567 9.64a1.745 1.745 0 001.344 1.403 1.74 1.74 0 001.318-.232 1.745 1.745 0 00.783-1.779 1.748 1.748 0 10-3.445.608z" fill="#263238"/><path d="M132.171 155.045l.818 11.51-6.133-1.301 5.315-10.209zm8.177 22.784c4.027-1.487 13.084-6.381 13.629-10.06a9.031 9.031 0 01-2.007 4.956c-2.057 2.763-10.122 7.731-10.122 7.731l-1.5-2.627z" fill="#F28F8F"/><path d="M135.479 183.677c.434-1.375 2.205-1.511 2.205-1.511a3.73 3.73 0 01.632-3.147 3.353 3.353 0 012.082-.645c-.446-.978.136-3.208 1.35-3.481a11.427 11.427 0 013.457.161 11.447 11.447 0 013.023 2.974l-1.871-3.556a39.926 39.926 0 01-4.857-1.599c-1.858-.941-1.771-2.973-1.053-3.085 1.626.031 3.246.197 4.845.496 2.032.335 4.596.322 5.29 1.586s1.462 2.775 2.887 5.674c1.425 2.9 1.821 3.779 1.635 5.439-.186 1.661-.161 4.956-.669 9.082s.31 5.092 2.131 7.434c1.239 1.573 8.896 9.168 16.974 16.553l-1.103-16.045s-2.626-16.503 3.631-22.673c8.425-1.363 12.513 2.478 14.384 7 3.283 8.004 2.317 30.813 1.685 42.819-.632 12.005-5.352 16.552-8.97 17.345-3.618.793-13.53-3.382-20.022-11.919-5.104-5.86-16.032-25.163-17.63-27.852a27.952 27.952 0 00-4.25-5.711c-1.239-1.239-2.23-6.195-2.23-9.156-.273.929-1.239 1.672-2.02 1.09-.161-1.524-1.66-6.269-1.536-7.273z" fill="#FFA8A7"/><path d="M156.604 199.462a15.12 15.12 0 01-1.698-2.478 6.395 6.395 0 01-.532-2.961c0-1.016.173-2.032.284-3.036.112-1.003.199-2.032.273-3.048l.173-3.048.1-1.524c.07-.513.091-1.031.062-1.548a9.626 9.626 0 00-.992-2.912 55.58 55.58 0 00-1.35-2.738l-1.375-2.738-.694-1.363a2.067 2.067 0 00-1.128-1.09 11.527 11.527 0 00-3.01-.632c-1.016-.112-2.007-.31-3.023-.434s-2.02-.248-3.061-.272a.685.685 0 00-.458.148.937.937 0 00-.248.384 1.718 1.718 0 000 .831c.087.536.343 1.031.731 1.412a7.312 7.312 0 002.788 1.363c.979.322 1.957.607 2.936.88l-.111-.087 1.846 3.58.285-.173c-.445-.563-.921-1.1-1.425-1.611a13.114 13.114 0 00-.781-.743 4.045 4.045 0 00-.892-.657c-.625-.122-1.259-.2-1.895-.235a4.416 4.416 0 00-1.946.198c-.565.373-.965.95-1.115 1.611a3.118 3.118 0 000 1.957l.137-.198a4.548 4.548 0 00-1.413.223c-.24.075-.463.197-.656.359a2.9 2.9 0 00-.446.583 3.886 3.886 0 00-.323 2.787l.112-.161a3.496 3.496 0 00-1.388.471 2.097 2.097 0 00-.917 1.14c.02.628.111 1.251.273 1.858l.458 1.797c.298 1.239.657 2.379.868 3.568a1.237 1.237 0 001.375 0c.391-.273.673-.677.793-1.14h-.186c.029 1.399.182 2.792.458 4.163a18.874 18.874 0 001.239 4.002 5.687 5.687 0 001.239 1.66c.471.521.93 1.041 1.351 1.586a32.31 32.31 0 012.329 3.457 33.61 33.61 0 00-2.28-3.494 26.633 26.633 0 00-1.338-1.598 5.58 5.58 0 01-1.239-1.66 18.392 18.392 0 01-1.139-3.99 24.322 24.322 0 01-.434-4.126v-.656l-.186.632c-.117.41-.371.768-.719 1.015a.926.926 0 01-1.139 0v.075c-.223-1.239-.57-2.404-.868-3.606l-.433-1.784a7.523 7.523 0 01-.26-1.784 2.394 2.394 0 012.106-1.425h.148v-.148a3.727 3.727 0 01.31-2.59 1.603 1.603 0 01.954-.817 4.32 4.32 0 011.326-.199h.198l-.074-.198a2.842 2.842 0 010-1.759c.129-.584.48-1.095.979-1.425a4.281 4.281 0 011.796-.161c.62.041 1.236.12 1.846.235.286.178.555.382.805.607.261.236.521.484.756.731.496.508.954 1.041 1.4 1.599l1.016 1.239-.731-1.438-1.846-3.593v-.074h-.074c-.979-.273-1.958-.545-2.912-.867a6.964 6.964 0 01-2.676-1.239 2.477 2.477 0 01-.657-1.239c-.074-.434 0-1.053.446-1.004 1.012.022 2.022.105 3.024.248 1.003.124 2.007.31 3.023.421 1.005.064 1.997.264 2.948.595.454.181.818.532 1.016.979l.694 1.363 1.388 2.713c.458.904.929 1.809 1.363 2.738.475.886.802 1.845.966 2.837a6.717 6.717 0 010 1.5l-.087 1.536-.148 3.048a84.457 84.457 0 01-.236 3.048c-.099 1.016-.235 2.019-.248 3.047a6.454 6.454 0 00.583 2.974c.442.886.974 1.724 1.586 2.503z" fill="#B16668"/><path d="M140.349 178.523c-.1-.35-.134-.715-.099-1.078 1.015.273 2.329.409 3.171.706a2.875 2.875 0 011.574 1.413c-.434-.459-1.673-1.053-4.646-1.041zm.916 4.535a6.31 6.31 0 00-3.568-.768 6.98 6.98 0 01-.112-1.029c2.9.421 3.68 1.797 3.68 1.797zm-2.069 7.52a17.428 17.428 0 01.099-3.927c.137-.781.186-1.239-.694-1.103-.879.136-2.093-.942-1.858-.211.124.397 1.685 1.054 1.784 1.611.103 1.229.327 2.445.669 3.63z" fill="#B16668"/><path d="M173.615 216.014c2.23 1.846 9.788 7.62 10.841 13.505 0 0 1.053-4.411-3.283-9.317a90.419 90.419 0 00-7.806-7.892l.248 3.704z" fill="#F28F8F"/><path d="M126.534 251.821c.756 4.398 2.156 6.009 6.641 7.978 7.31 3.209 36.587 11.498 45.235 11.56a43.723 43.723 0 0014.471-2.181 3.91 3.91 0 002.131-1.338 5.124 5.124 0 011.239-1.486 17.785 17.785 0 011.933-1.004 3.58 3.58 0 001.573-2.143c.043-.584.226-1.15.533-1.648.369-.38.701-.795.991-1.239a3.78 3.78 0 00.483-1.945 3.104 3.104 0 01.087-1.016c.134-.301.328-.571.57-.793.257-.288.497-.59.719-.905.227-.256.369-.576.409-.917a1.708 1.708 0 00-.323-.755c-1.016-1.599-3.295-1.239-4.955-1.066-1.97.223-3.903.607-5.873.843-2.742.328-5.51.39-8.264.186v-5.093a15.784 15.784 0 00-5.563 2.429c-3.221 1.982-5.167 4.658-11.151 3.072-5.984-1.585-20.244-9.688-27.406-12.191-7.161-2.503-13.913 7.05-13.48 9.652z" fill="#FFA8A7"/><path d="M359.609 505.425l-175.45-27.233V97.978l175.45 27.294v380.153z" fill="#455A64"/><path d="M189.499 94.893l-5.34 3.085 175.45 27.294-9.28-5.365-160.83-25.014z" fill="#37474F"/><path d="M339.018 322.119l-122.782-19.08v154.537l122.782 19.068V322.119z" fill="#455A64"/><path opacity=".1" d="M339.018 322.119l-122.782-19.08v154.537l122.782 19.068V322.119z" fill="#000"/><path d="M329.8 330.012l-104.359-16.231v135.89L329.8 465.902v-135.89z" fill="#455A64"/><path d="M339.018 476.644l-9.218-10.742-104.359-16.231-9.205 7.905 122.782 19.068z" fill="#263238"/><path d="M339.018 322.12l-9.218 7.892v135.89l9.218 10.742V322.12zm-113.577-8.339l-9.205-10.742v154.537l9.205-7.905v-135.89z" fill="#37474F"/><path d="M269.263 134.986l-53.027-8.252v154.537l53.015 8.239.012-154.524z" fill="#455A64"/><path opacity=".1" d="M269.263 134.986l-53.027-8.252v154.537l53.015 8.239.012-154.524z" fill="#000"/><path d="M260.046 142.878l-34.605-5.39v135.89l34.605 5.39v-135.89z" fill="#455A64"/><path d="M269.251 289.51l-9.205-10.742-34.605-5.39-9.205 7.893 53.015 8.239z" fill="#263238"/><path d="M269.263 134.986l-9.218 7.892v135.89l9.206 10.742.012-154.524zm-43.822 2.502l-9.205-10.754v154.537l9.205-7.893v-135.89z" fill="#37474F"/><path d="M338.931 145.777l-53.028-8.251v154.536l53.028 8.239V145.777z" fill="#455A64"/><path opacity=".1" d="M338.931 145.777l-53.028-8.251v154.536l53.028 8.239V145.777z" fill="#000"/><path d="M329.725 153.669l-34.604-5.402-.013 135.903 34.617 5.389v-135.89z" fill="#455A64"/><path d="M338.931 300.301l-9.206-10.742-34.617-5.389-9.205 7.892 53.028 8.239z" fill="#263238"/><path d="M338.931 145.777l-9.206 7.892v135.89l9.206 10.742V145.777zm-43.81 2.49l-9.218-10.741v154.536l9.205-7.892.013-135.903z" fill="#37474F"/><path d="M207.798 274.902l-2.391 2.416v39.697l2.391-2.404v-39.709z" fill="#E0E0E0"/><path d="M205.407 277.318l-12.898-1.933v39.709l12.898 1.921v-39.697z" fill="#FAFAFA"/><path opacity=".05" d="M192.509 286.313l12.898 1.883v7.769l-12.898-1.871v-7.781z" fill="#000"/><path d="M192.509 275.386l2.392-2.404 12.897 1.92-2.391 2.416-12.898-1.932z" fill="#EBEBEB"/><path d="M200.464 284.839l-5.923 5.947-2.366-3.098 5.922-5.934a1.346 1.346 0 011.177-.397 2.17 2.17 0 011.673 2.181c.013.48-.16.946-.483 1.301z" fill="#E0E0E0"/><path opacity=".1" d="M205.407 288.271l-9.404 1.041v-2.825l-2.292-.335 2.156-2.168 9.54 1.45v2.837z" fill="#000"/><path d="M224.772 291.678v6.195l-33.601-5.03v-6.195l33.601 5.03z" fill="#FAFAFA"/><path d="M224.772 291.678l2.144-2.168v6.207l-2.144 2.156v-6.195z" fill="#E0E0E0"/><path d="M191.172 286.648l2.155-2.169 33.589 5.031-2.144 2.168-33.6-5.03z" fill="#EBEBEB"/><path d="M201.132 302.085a2.853 2.853 0 00-2.18-2.837 1.997 1.997 0 00-2.168 2.193 3.019 3.019 0 001.313 2.478v4.051a.968.968 0 00.731.967h.26a.667.667 0 00.7-.449.67.67 0 00.031-.295v-4.051a2.13 2.13 0 001.313-2.057zm177.359 238.898c-10.544-10.878-16.739-55.183-6.455-63.819h52.359c10.283 8.673 4.101 52.917-6.443 63.807l-.297.31-.36.359c-.297.285-.619.57-.954.855a1.88 1.88 0 00-.247.198c-.261.198-.521.409-.806.607-.436.321-.891.615-1.363.88-8.672 5.067-22.747 5.067-31.42 0a11.795 11.795 0 01-1.375-.892c-.26-.174-.496-.372-.744-.558l-.309-.247a15.135 15.135 0 01-.917-.831l-.421-.408-.248-.261z" fill="#455A64"/><path d="M419.848 473.683c11.943 6.975 11.943 18.287 0 25.262-11.944 6.976-31.309 6.976-43.265 0-11.956-6.975-11.944-18.287 0-25.262 11.944-6.976 31.321-6.976 43.265 0z" fill="#455A64"/><path opacity=".1" d="M419.848 473.683c11.943 6.975 11.943 18.287 0 25.262-11.944 6.976-31.309 6.976-43.265 0-11.956-6.975-11.944-18.287 0-25.262 11.944-6.976 31.321-6.976 43.265 0z" fill="#fff"/><path d="M414.099 477.04c8.772 5.117 8.772 13.431 0 18.585-8.772 5.154-22.995 5.129-31.767 0-8.772-5.13-8.772-13.431 0-18.585 8.772-5.154 22.97-5.117 31.767 0z" fill="#263238"/><path d="M382.332 485.849c8.772-5.129 22.995-5.129 31.767 0a14.403 14.403 0 015.253 4.87 14.625 14.625 0 01-5.253 4.869c-8.772 5.129-22.995 5.129-31.767 0a14.636 14.636 0 01-5.254-4.869 14.398 14.398 0 015.254-4.87z" fill="#F5F5F5"/><path d="M427.244 391.217l-20.938 14.322 19.823-7.495a36.064 36.064 0 01-3.915 15.214s-13.071 6.344-20.183 13.034l17.395-5.476a19.369 19.369 0 01-.545 9.106c-.111.397-.235.818-.371 1.239-.917 2.788-2.231 8.054-4.461 14.298a90.428 90.428 0 01-7.198 15.735 63.256 63.256 0 01-4.783 7.074c-.099.149-.21.285-.322.422a216.856 216.856 0 00-10.085-6.332c-2.019-5.129-4.237-17.618-4.634-27.752-1.548-38.78 29.116-58.777 52.966-64.526 0 0-8.672 9.515-12.749 21.137z" fill="#FFC100"/><path opacity=".3" d="M427.244 391.217l-20.938 14.322 19.823-7.495a36.064 36.064 0 01-3.915 15.214s-13.071 6.344-20.183 13.034l17.395-5.476a19.369 19.369 0 01-.545 9.106c-.111.397-.235.818-.371 1.239-.917 2.788-2.231 8.054-4.461 14.298a90.428 90.428 0 01-7.198 15.735 63.256 63.256 0 01-4.783 7.074c-.099.149-.21.285-.322.422a216.856 216.856 0 00-10.085-6.332c-2.019-5.129-4.237-17.618-4.634-27.752-1.548-38.78 29.116-58.777 52.966-64.526 0 0-8.672 9.515-12.749 21.137z" fill="#000"/><path d="M410.543 391.663a28.793 28.793 0 00-5.439 6.554 57.198 57.198 0 00-3.829 7.645 77.843 77.843 0 00-4.646 16.404 72.115 72.115 0 001.846 33.699.571.571 0 01-.371.707.559.559 0 01-.694-.372 72.989 72.989 0 01-1.326-34.134 78.691 78.691 0 014.956-16.416 58.235 58.235 0 013.965-7.607 29.314 29.314 0 015.538-6.48z" fill="#FAFAFA"/><path d="M337.345 411.028c.47.607 7.892 7.075 19.266 26.415l23.069 5.885-18.758 1.685 8.673 15.066 19.6 4.807-15.549 1.982s3.717 15.289 14.546 22.017c5.997 3.717 8.958 4.361 10.866 2.688 1.338-1.177 1.908-8.412 3.233-14.867 1.326-6.455 1.822-16.949-3.791-29.872a39.671 39.671 0 00-5.996-9.577c-14.038-16.949-41.444-25.894-55.159-26.229z" fill="#FFC100"/><path opacity=".15" d="M337.345 411.028c.47.607 7.892 7.075 19.266 26.415l23.069 5.885-18.758 1.685 8.673 15.066 19.6 4.807-15.549 1.982s3.717 15.289 14.546 22.017c5.997 3.717 8.958 4.361 10.866 2.688 1.338-1.177 1.908-8.412 3.233-14.867 1.326-6.455 1.822-16.949-3.791-29.872a39.671 39.671 0 00-5.996-9.577c-14.038-16.949-41.444-25.894-55.159-26.229z" fill="#000"/><path opacity=".1" d="M394.151 453.364a60.887 60.887 0 013.978 16.85 179.88 179.88 0 01-.261 21.929 3.31 3.31 0 001.14-.632c1.338-1.177 1.908-8.412 3.234-14.867s1.821-16.949-3.791-29.872a39.675 39.675 0 00-5.997-9.577c-14.037-16.912-41.443-25.857-55.159-26.192 20.914 4.25 42.992 19.13 53.536 35.844a43.368 43.368 0 013.32 6.517z" fill="#000"/><path d="M358.221 418.437c10.246 4.956 19.824 11.634 27.257 20.443a54.357 54.357 0 019.045 14.632 52.025 52.025 0 013.717 16.727.094.094 0 01-.062 0 66.9 66.9 0 00-4.659-16.305 62.916 62.916 0 00-8.672-14.496 72.506 72.506 0 00-12.241-11.783 95.261 95.261 0 00-14.484-9.106v-.099l.099-.013z" fill="#FAFAFA"/><path d="M459.532 425.673a42.206 42.206 0 00-5.08 0 81.674 81.674 0 00-19.638 3.642 86.672 86.672 0 00-7.086 2.553 67.386 67.386 0 00-3.482 1.536 56.216 56.216 0 00-15.475 10.407 35.35 35.35 0 00-5.513 6.901c-.198.322-.409.645-.595.979-.471.867-.917 1.71-1.325 2.552a48.592 48.592 0 00-5.7 23.603c-.111 5.798 1.499 12.513 2.553 13.628.146.153.308.29.483.409 1.598 1.14 4.249.669 9.292-1.796 10.122-4.956 14.744-18.585 14.744-18.585l-13.505-3.072 17.705-2.478 7.731-10.705-12.972-3.246 17.94-1.735a263.492 263.492 0 0119.898-24.569l.025-.024z" fill="#FFC100"/><path opacity=".05" d="M454.452 425.623a81.627 81.627 0 00-19.638 3.643 86.817 86.817 0 00-7.087 2.552 67.353 67.353 0 00-3.481 1.536 56.198 56.198 0 00-15.475 10.408 35.32 35.32 0 00-5.513 6.901c-.198.322-.409.644-.595.978-.471.868-.917 1.71-1.326 2.553a48.596 48.596 0 00-5.699 23.602c-.111 5.798 1.499 12.514 2.552 13.629.147.153.309.29.484.409.325.214.686.369 1.065.458-.718-9.032 4.956-31.507 12.142-40.49 7.434-9.329 24.779-22.524 47.638-26.129a44.61 44.61 0 00-5.067-.05z" fill="#000"/><path d="M42.433 396.916c1.437 4.547 9.639 16.107 12.39 19.266 2.75 3.159 3.171 16.776 3.146 19.613-.024 2.837-1.92 5.526-3.122 7.347-1.202 1.821.88 4.956 5.253 3.519 4.374-1.438 5.7-5.861 6.344-8.822.644-2.961 2.094-19.935.297-30.478 0 .037-8.92-11.325-24.308-10.445zm67.14-42.608c6.926.149 16.49-5.365 19.823-14.868 3.333-9.503 1.338-23.54-2.242-31.519-2.045-4.535-1.413-7.434.322-8.289 2.552-1.239 5.117.161 7.012 4.176 2.404 5.154 7.236 24.382 2.887 36.091-4.349 11.708-12.266 18.002-16.924 19.823l-10.878-5.414zm2.18 26.687c-.421 9.317-4.881 25.808-7.434 29.835-2.676 4.249-4.757 5.463-9.081 5.587-4.324.124-4.956-3.63.532-6.987 1.041-1.475 1.425-8.673.83-16.169-.594-7.496 15.153-12.266 15.153-12.266z" fill="#37474F"/><path d="M36.276 362.398c0 4.956-.892 18.213 2.23 26.787 2.973 8.165 8.388 15.648 20.542 17.544 12.154 1.895 22.871-.707 29.884-4.758 7.012-4.051 13.864-12.216 18.807-13.145a23.725 23.725 0 0012.068 6.009c8.041 1.647 12.092-.384 12.092-.384s2.354 6.566 2.478 9.911c.124 3.345 0 6.53-2.552 8.264-2.552 1.735-3.804 2.614-3.531 4.448 0 0 0 2.032 5.241 1.883 5.24-.148 5.377-.991 6.95-5.699 1.574-4.708 3.581-16.924 3.878-21 .298-4.077-4.683-4.609-7.161-7.967a38.062 38.062 0 01-6.195-12.092c-1.685-5.365-5.612-13.691-14.124-16.441-8.512-2.751-17.135-2.008-29.066 3.208-11.932 5.217-17.891 7.434-23.751 4.201-7.955-4.436-7.15-11.424-7.15-11.424-8.61-1.202-18.41-5.736-20.64 10.655z" fill="#455A64"/><path d="M64.858 407.299l.682-2.912 5.687-2.825 1.747 1.128a22.691 22.691 0 00-2.602 4.559 50.956 50.956 0 01-5.514.05z" fill="#37474F"/><path d="M72.974 402.69c-3.42 2.279-6.133 7.334-10.953 10.333a25.049 25.049 0 01-8.92 3.543 27.53 27.53 0 00-3.048 7.322c-1.09 4.287-2.342 9.615-5.984 11.981-3.643 2.367-9.429.793-6.43-3.407 2.13-2.986 3.134-6.79 4.15-10.618 1.35-5.055.186-7.434 2.738-10.791a33.85 33.85 0 006.38-12.266s16.913-3.643 22.067 3.903z" fill="#455A64"/><path d="M105.831 389.47a14.036 14.036 0 01-1.524-8.611 18.574 18.574 0 003.432 7.967 8.021 8.021 0 00-1.908.644z" fill="#37474F"/><path d="M53.435 357.938c-10.258 9.813 2.404 16.107 2.082 28.781-.1 4.188-2.007 8.673-6.195 16.615a26.715 26.715 0 01-11.287-13.988c-2.354-6.468-2.33-16.9-1.846-21.967a27.408 27.408 0 013.717-11.349s23.813-7.905 13.53 1.908z" fill="#E0E0E0"/><path d="M63.557 362.894a22.43 22.43 0 01-13.343 1.796 12.92 12.92 0 01-10.32-8.672l17.53-.409a13.257 13.257 0 006.133 7.285zm-15.945-30.442c-2.7-3.171-9.7-5.674-13.393-2.54-2.081 1.772 3.47 11.386 3.47 11.386s7.173-3.853 9.923-8.846z" fill="#37474F"/><path d="M44.763 335.773c-3.42 2.85-7.05 5.526-7.05 5.526s-5.55-9.615-3.47-11.386c1.425-.88 6.195-.1 10.52 5.86z" fill="#FFA8A7"/><path d="M37.886 338.957a4.46 4.46 0 00-1.078-1.041 67.282 67.282 0 01-1.028-2.094 9.32 9.32 0 013.519-1.3 3.47 3.47 0 00-1.24-2.107 4.052 4.052 0 014.82 2.59 7.11 7.11 0 01-1.35 2.589c-.768.521-1.475.954-2.045 1.314a3.716 3.716 0 01-1.598.049z" fill="#F28F8F"/><path d="M42.285 335.884a4.04 4.04 0 00-3.965-2.478c.54.621.831 1.42.818 2.243 0 0-3.965-.211-4.956 1.821a4.327 4.327 0 013.717 2.181c3.407 1.325 4.386-3.767 4.386-3.767z" fill="#455A64"/><path d="M70.15 329.343a16.104 16.104 0 00-4.486 11.076l-2.924-2.106s-.074-5.154 2.106-6.976a10.041 10.041 0 015.303-1.994z" fill="#F28F8F"/><path d="M56.744 332.713c1.4-2.813 8.672-6.468 13.405-3.321 0 0-6.195 1.995-6.492 8.438l-6.913-5.117z" fill="#37474F"/><path d="M36.276 362.51c.396-5.898-1.116-13.765-.186-18.25 1.09-5.229 4.287-11.894 14.458-12.452 10.172-.557 15.128 4.845 16.9 11.609 1.053 3.37 2.478 4.832 2.044 8.562a10.955 10.955 0 01-8.561 9.763c-4.287 1.239-15.673 1.586-21.063-5.712l-3.617 6.48" fill="#455A64"/><path d="M63.73 336.937s.162-1.016 1.896-2.094a5.636 5.636 0 014.287-.508s-2.329 1.909-2.59 3.457a4.963 4.963 0 012.69-.087s-3.408 2.342-2.751 5.948c0 0-3.605-4.25-3.531-6.716z" fill="#455A64"/><path d="M57.697 353.713a.472.472 0 00.446-.471l-.074-2.341a.47.47 0 00-.47-.446.456.456 0 00-.447.47l.075 2.342a.472.472 0 00.47.446z" fill="#263238"/><path d="M55.541 355.187a.43.43 0 00.236-.074l1.92-1.313 1.958 1.239a.462.462 0 00.585-.179.459.459 0 00-.114-.602l-2.206-1.338a.43.43 0 00-.495 0l-2.156 1.474a.46.46 0 00-.124.632.444.444 0 00.396.161z" fill="#263238"/><path d="M57.56 348.113c2.355-.112 2.64.595 2.404 1.437a4.235 4.235 0 01-2.267 1.945c-.557.087-2.688-.966-2.775-1.871-.087-.904.421-1.4 2.639-1.511z" fill="#F28F8F"/><path d="M49.483 350.405a.395.395 0 00-.074-.557 7.253 7.253 0 00-3.947-1.847 7.253 7.253 0 00-4.293.744.41.41 0 10.372.731 6.527 6.527 0 017.434.991.373.373 0 00.508-.062zm-.682 1.239l.075-.124a.433.433 0 00-.223-.533 6.796 6.796 0 00-5.563.323.408.408 0 00-.143.563.399.399 0 00.108.119.41.41 0 00.456.024 5.98 5.98 0 014.857-.298.369.369 0 00.434-.074zm.719 1.536a.298.298 0 00.087-.223.42.42 0 00-.372-.446 7.781 7.781 0 00-6.554 3.048.395.395 0 00.074.558.38.38 0 00.421.088.388.388 0 00.124-.088 7.029 7.029 0 015.898-2.763.344.344 0 00.322-.174zm13.827-3.432a.407.407 0 010-.57 7.238 7.238 0 017.855-2.701.408.408 0 01.06.722.406.406 0 01-.283.059 6.529 6.529 0 00-7.062 2.478.38.38 0 01-.282.133.383.383 0 01-.288-.121zm.855 1.016a.329.329 0 01-.087-.099.42.42 0 01.136-.557 6.766 6.766 0 015.576-.409.41.41 0 01-.033.741.41.41 0 01-.302.002 6.01 6.01 0 00-4.844.347.355.355 0 01-.228.065.355.355 0 01-.218-.09zm-.582 1.66a.381.381 0 01-.112-.223.422.422 0 01.322-.47 7.76 7.76 0 016.852 2.292.408.408 0 010 .57.358.358 0 01-.413.087.357.357 0 01-.12-.087 7.022 7.022 0 00-2.84-1.81 7.026 7.026 0 00-3.355-.284.335.335 0 01-.335-.075zm-15.76-8.214a1.549 1.549 0 103.096-.101 1.549 1.549 0 00-3.096.101zm12.489-.495a1.55 1.55 0 101.487-1.586 1.532 1.532 0 00-1.487 1.586z" fill="#263238"/></svg>