<svg width="25" height="43" fill="none" xmlns="http://www.w3.org/2000/svg"><path fill-rule="evenodd" clip-rule="evenodd" d="M.938 42.139c.917.826 2.399.826 3.313 0l19.376-17.516a4.12 4.12 0 001.015-1.365c.236-.515.358-1.07.358-1.631a3.91 3.91 0 00-.358-1.63 4.139 4.139 0 00-1.015-1.365L4.111.987a2.494 2.494 0 00-1.64-.62 2.49 2.49 0 00-1.65.6c-.223.191-.4.423-.523.682a1.958 1.958 0 00-.013 1.646c.118.26.292.496.51.691l17.863 16.145c.217.193.39.425.508.683a1.95 1.95 0 010 1.63 2.07 2.07 0 01-.508.683L.938 39.144a2.07 2.07 0 00-.508.683 1.951 1.951 0 000 1.629c.119.257.291.49.508.683z" fill="#fff"/></svg>