<svg width="42" height="42" fill="none" xmlns="http://www.w3.org/2000/svg"><path d="M20.833 14.583a6.25 6.25 0 100 12.5 6.25 6.25 0 000-12.5zm0-4.166a10.417 10.417 0 110 20.833 10.417 10.417 0 010-20.833zm13.542-.521a2.605 2.605 0 11-5.21 0 2.605 2.605 0 015.21 0zm-13.542-5.73c-5.154 0-5.995.015-8.393.121-1.634.078-2.73.296-3.746.692-.904.35-1.557.769-2.25 1.465a6.02 6.02 0 00-1.467 2.25c-.396 1.02-.615 2.114-.69 3.746-.108 2.3-.12 3.104-.12 8.393 0 5.155.014 5.996.12 8.394.078 1.631.296 2.73.69 3.744.354.906.77 1.558 1.463 2.25a6.043 6.043 0 002.25 1.464c1.029.398 2.125.62 3.75.694 2.3.108 3.104.121 8.393.121 5.155 0 5.996-.015 8.394-.12 1.63-.078 2.727-.297 3.744-.69.902-.352 1.558-.771 2.25-1.463a6.023 6.023 0 001.467-2.25c.395-1.027.616-2.125.691-3.75.108-2.3.121-3.104.121-8.394 0-5.154-.015-5.995-.12-8.393-.078-1.63-.297-2.73-.693-3.746a6.064 6.064 0 00-1.464-2.25 6.008 6.008 0 00-2.25-1.467c-1.02-.396-2.117-.615-3.746-.69-2.3-.108-3.104-.12-8.394-.12zm0-4.166c5.66 0 6.367.02 8.588.125 2.219.104 3.729.452 5.058.969 1.375.529 2.534 1.246 3.692 2.402a10.224 10.224 0 012.402 3.692c.514 1.327.864 2.84.969 5.058.098 2.22.125 2.927.125 8.587s-.021 6.367-.125 8.588c-.105 2.219-.455 3.729-.97 5.058a10.172 10.172 0 01-2.401 3.692 10.239 10.239 0 01-3.692 2.402c-1.327.514-2.84.864-5.058.969-2.221.098-2.927.125-8.588.125-5.66 0-6.366-.021-8.587-.125-2.219-.105-3.73-.455-5.059-.97a10.187 10.187 0 01-3.691-2.401 10.216 10.216 0 01-2.402-3.692c-.517-1.327-.865-2.84-.969-5.058C.027 27.2 0 26.494 0 20.833c0-5.66.02-6.366.125-8.587.104-2.221.452-3.73.969-5.059a10.167 10.167 0 012.402-3.691 10.18 10.18 0 013.692-2.402C8.517.577 10.024.229 12.245.125 14.466.027 15.173 0 20.833 0z" fill="#1C222A"/></svg>