<svg width="84" height="58" fill="none" xmlns="http://www.w3.org/2000/svg"><path d="M3.944 0C1.766 0 0 1.898 0 4.24v48.751c0 2.342 1.767 4.24 3.944 4.24H80.81c2.177 0 3.944-1.898 3.944-4.24V4.241C84.754 1.899 82.987 0 80.81 0H3.944zM27.79 6.89c4.838 0 9.281 1.809 12.769 4.832-2.934 2.823-5.123 6.533-6.203 10.737h1.693c.996-3.469 2.807-6.557 5.193-9.005 2.387 2.448 4.197 5.536 5.194 9.005h1.719c-1.095-4.182-3.287-7.87-6.219-10.674 3.495-3.062 7.955-4.896 12.814-4.896 11.212 0 20.301 9.774 20.301 21.832 0 12.058-9.089 21.832-20.301 21.832-4.94 0-9.469-1.895-12.989-5.05 3.149-2.944 5.47-6.893 6.532-11.385h-1.656c-.942 3.77-2.84 7.123-5.395 9.746-2.555-2.623-4.45-5.976-5.392-9.746h-1.576c1.068 4.427 3.358 8.32 6.46 11.238-3.514 3.114-8.025 4.986-12.944 4.986-11.212 0-20.3-9.727-20.3-21.726 0-12 9.088-21.727 20.3-21.727zm25.437 15.347c-2.44 0-4.813 2.293-4.813 6.598 0 2.855 1.282 4.739 3.804 4.739.713 0 1.849-.313 1.849-.313l.376-2.495s-1.037.564-1.748.564c-1.5 0-2.1-1.24-2.1-2.572 0-2.702 1.289-4.19 2.725-4.19 1.076 0 1.941.656 1.941.656l.344-2.426s-1.28-.561-2.378-.561zm20.508.21l-2.122.006-.455 3.002s-.798-1.165-2.045-1.165c-1.94 0-3.554 2.477-3.554 5.326 0 1.838.86 3.642 2.622 3.642 1.267 0 1.97-.937 1.97-.937l-.093.8h2.061l1.616-10.674zm-60.763.032l-1.69 10.7h2.037l1.287-8.069.19 8.068h1.457l2.718-8.068-1.206 8.068h2.164l1.669-10.7H18.25l-2.084 6.565-.109-6.564h-3.085zm21.278.695c-.046.05-1.231 7.4-1.231 8.295 0 1.326.69 1.918 1.663 1.909.697-.007 1.236-.195 1.486-.274l.076-.023.263-1.913c-.143 0-.353.065-.538.065-.726 0-.806-.415-.76-.723l.585-3.905H36.9l.267-2.116h-1.04l.211-1.316h-2.087zm24.62 1.076c-1.421 0-2.51.504-2.51.504l-.302 1.965s.9-.401 2.259-.401c.772 0 1.337.095 1.337.786 0 .42-.069.575-.069.575s-.61-.057-.892-.057c-1.793 0-3.676.845-3.676 3.386 0 2.003 1.236 2.46 2.002 2.46 1.463 0 2.093-1.044 2.127-1.047l-.069.871h1.825l.816-6.288c0-2.668-2.114-2.754-2.848-2.754zm-34.232.011a6.64 6.64 0 00-2.522.505l-.301 1.965s.902-.402 2.267-.402c.774 0 1.343.095 1.343.786 0 .42-.07.575-.07.575s-.612-.057-.895-.057c-1.8 0-3.689.844-3.689 3.384 0 2 1.239 2.46 2.008 2.46 1.468 0 2.1-1.045 2.134-1.048l-.069.872h1.833l.819-6.286c0-2.666-2.122-2.754-2.858-2.754zm6.473 0c-1.532 0-3.088.665-3.088 2.937 0 2.573 2.593 2.313 2.593 3.397 0 .724-.724.783-1.282.783-.966 0-1.835-.359-1.838-.341l-.279 1.965c.05.016.589.276 2.326.276.466 0 3.133.127 3.133-2.86 0-2.792-2.468-2.238-2.468-3.36 0-.558.4-.735 1.136-.735.292 0 1.417.1 1.417.1l.26-1.985s-.726-.177-1.91-.177zm9.577 0c-2.129 0-3.705 2.463-3.705 5.243 0 3.21 1.975 3.973 3.657 3.973 1.554 0 2.238-.373 2.238-.373l.371-2.19s-1.181.558-2.248.558c-2.274 0-1.876-1.82-1.876-1.82h4.304s.279-1.47.279-2.07c0-1.496-.695-3.32-3.02-3.32zm7.71.094c-.96 0-1.671 1.387-1.671 1.387l.19-1.273h-1.991l-1.338 8.789h2.201c.623-3.753.737-6.8 2.225-6.243.26-1.452.513-2.014.797-2.628 0 0-.133-.032-.413-.032zm17.833 0c-.96 0-1.672 1.387-1.672 1.387l.191-1.273h-1.991l-1.338 8.789h2.198c.624-3.753.74-6.8 2.228-6.243.26-1.452.513-2.014.797-2.628 0 0-.134-.032-.413-.032zm-25.554 1.889c1.21 0 .988 1.467.988 1.586h-2.38c0-.152.225-1.586 1.392-1.586zm28.772.17c.77 0 1.165.56 1.165 1.874 0 1.194-.56 2.788-1.719 2.788-.77 0-1.13-.683-1.13-1.754 0-1.751.744-2.908 1.684-2.908zm-10.576 2.99c.314.001.379.034.432.05-.008-.002-.01 0 .021.005.04.391-.22 2.227-1.475 2.227-.648 0-.813-.553-.813-.88 0-.637.308-1.401 1.835-1.401zm-34.233.01c.357 0 .396.043.456.053.04.392-.22 2.225-1.48 2.225-.65 0-.819-.551-.819-.878 0-.636.31-1.4 1.844-1.4z" fill="#1C222A"/></svg>