<svg width="42" height="42" fill="none" xmlns="http://www.w3.org/2000/svg"><path d="M21 37.667a16.667 16.667 0 100-33.333 16.667 16.667 0 000 33.333zm0 4.166C9.494 41.833.167 32.506.167 21 .167 9.494 9.494.167 21 .167 32.506.167 41.833 9.494 41.833 21c0 11.506-9.327 20.833-20.833 20.833zm-6.48-18.395l-5.203-1.623c-1.125-.344-1.132-1.12.252-1.675l20.277-7.834c1.177-.479 1.844.127 1.462 1.646l-3.452 16.292c-.241 1.16-.94 1.437-1.908.902l-5.315-3.933-2.477 2.391c-.254.246-.46.457-.852.509-.39.054-.71-.063-.946-.709l-1.812-5.981-.025.017v-.002z" fill="#DCDCDC"/></svg>