<svg width="76" height="56" fill="none" xmlns="http://www.w3.org/2000/svg"><path d="M56.74 24.81l-2.256 5.39h3.53l-.984-4.15-.29-1.24z" fill="#1C222A"/><path d="M70.598 0H5.043A5.048 5.048 0 000 5.043v45.384a5.048 5.048 0 005.043 5.043h65.555a5.048 5.048 0 005.042-5.043V5.043A5.048 5.048 0 0070.598 0zM12.622 21.255a.466.466 0 01.466-.36l4.458.004h.018c.653.026 1.553.172 1.838 1.158l.005.022.791 3.45a.429.429 0 01-.267.489.504.504 0 01-.575-.134c-1.487-1.808-3.711-3.24-6.43-4.142a.434.434 0 01-.304-.487zm10.496 14.024l-3.825.005a.471.471 0 01-.453-.313l-3.324-10.474a.42.42 0 01.187-.484.504.504 0 01.555.015c2.395 1.697 4.11 3.833 4.745 5.2a.36.36 0 01.023.057l.433 1.45 4.042-9.523a.474.474 0 01.441-.277l3.454-.003c.162 0 .31.073.396.197a.407.407 0 01.04.413l-6.278 13.474a.48.48 0 01-.436.263zm10.376-.348a.464.464 0 01-.47.365h-3.282a.491.491 0 01-.363-.156.415.415 0 01-.106-.355l2.496-13.502a.464.464 0 01.466-.363h3.286a.5.5 0 01.363.156.416.416 0 01.103.353L33.491 34.93h.003zm11.08-8.182c2.353.983 3.445 2.176 3.43 3.757-.03 2.877-2.829 4.737-7.128 4.74h-.005c-1.5-.018-3.063-.242-4.183-.605a.436.436 0 01-.31-.487l.406-2.193a.441.441 0 01.24-.31.509.509 0 01.41-.02c1.271.486 2.169.718 3.838.718 1.17 0 2.436-.421 2.446-1.352.007-.607-.527-1.04-2.118-1.72-1.553-.662-3.616-1.774-3.588-3.766.023-2.693 2.867-4.574 6.918-4.574 1.43 0 2.572.25 3.278.46.227.065.363.274.323.488l-.383 2.083a.441.441 0 01-.235.308.509.509 0 01-.403.027 8.007 8.007 0 00-2.892-.471c-1.548 0-2.355.597-2.355 1.187-.008.656.875 1.085 2.312 1.73zm18.361 8.389a.49.49 0 01-.368.163H59.6a.467.467 0 01-.464-.345c-.101-.416-.338-1.427-.437-1.808l-2.982-.002h-.063l-2.393-.003c-.088.21-.358.857-.774 1.876a.477.477 0 01-.444.282H48.64a.484.484 0 01-.398-.199.41.41 0 01-.035-.416l6.008-12.559c.4-.837 1.067-1.192 2.226-1.192h2.9c.222 0 .413.14.461.343l3.228 13.489a.414.414 0 01-.094.37z" fill="#1C222A"/></svg>