<svg width="42" height="42" fill="none" xmlns="http://www.w3.org/2000/svg"><path d="M11.11 34.53l1.509.88a16.568 16.568 0 008.38 2.257A16.666 16.666 0 104.334 21c0 2.992.786 5.86 2.259 8.383l.879 1.509-1.36 5.002 5-1.365zM.175 41.832l2.817-10.35A20.737 20.737 0 01.167 21C.167 9.494 9.494.167 21 .167 32.506.167 41.833 9.494 41.833 21c0 11.506-9.327 20.833-20.833 20.833a20.738 20.738 0 01-10.48-2.822L.176 41.833zM13.48 11.225c.28-.02.56-.02.84-.008.112.008.225.02.337.033.332.038.696.24.819.519.62 1.408 1.225 2.827 1.808 4.25.13.317.052.723-.193 1.119-.17.267-.352.526-.548.775-.236.302-.742.856-.742.856s-.206.246-.127.552c.03.117.125.285.212.427l.123.198a13.2 13.2 0 002.125 2.642c.25.241.494.49.757.72a12.52 12.52 0 003.27 2.084l.01.004c.178.077.267.119.526.23.129.053.262.101.398.137a.73.73 0 00.764-.271c1.509-1.827 1.646-1.946 1.659-1.946v.004a1.005 1.005 0 01.787-.265 1.1 1.1 0 01.369.084 231.05 231.05 0 002.917 1.296l1.212.543c.204.098.39.33.396.553.008.14.02.364-.027.777-.067.54-.23 1.187-.392 1.527a2.407 2.407 0 01-.437.629c-.21.22-.44.421-.688.6a7.73 7.73 0 01-.26.187c-.26.165-.526.318-.798.459a4.146 4.146 0 01-1.736.479c-.385.02-.77.05-1.158.029-.017 0-1.183-.181-1.183-.181a19.682 19.682 0 01-8-4.263c-.471-.414-.907-.86-1.352-1.304-1.854-1.844-3.255-3.833-4.104-5.712a7.229 7.229 0 01-.69-2.946 5.685 5.685 0 011.175-3.5c.152-.196.296-.4.544-.636.264-.25.43-.383.612-.475.241-.12.504-.191.773-.208l.002.002z" fill="#1C222A"/></svg>