<svg width="100" height="100" fill="none" xmlns="http://www.w3.org/2000/svg"><path fill="#fff" d="M0 0h15v15H0z"/><path fill="#fff" d="M0 0h15v15H0zm0 17h15v15H0z"/><path fill="#fff" d="M0 17h15v15H0zm0 17h15v15H0z"/><path fill="#fff" d="M0 34h15v15H0zm0 17h15v15H0z"/><path fill="#fff" d="M0 51h15v15H0zm0 17h15v15H0z"/><path fill="#1C222A" d="M0 68h15v15H0z"/><path fill="#fff" d="M0 85h15v15H0z"/><path fill="#fff" d="M0 85h15v15H0zM85 0h15v15H85z"/><path fill="#fff" d="M85 0h15v15H85zm0 17h15v15H85z"/><path fill="#1C222A" d="M85 17h15v15H85z"/><path fill="#fff" d="M85 34h15v15H85z"/><path fill="#fff" d="M85 34h15v15H85zm0 17h15v15H85z"/><path fill="#fff" d="M85 51h15v15H85zm0 17h15v15H85z"/><path fill="#fff" d="M85 68h15v15H85zm0 17h15v15H85z"/><path fill="#fff" d="M85 85h15v15H85zM68 0h15v15H68z"/><path fill="#fff" d="M68 0h15v15H68zm0 17h15v15H68z"/><path fill="#fff" d="M68 17h15v15H68zm0 17h15v15H68z"/><path fill="#1C222A" d="M68 34h15v15H68z"/><path fill="#fff" d="M68 51h15v15H68z"/><path fill="#fff" d="M68 51h15v15H68zm0 17h15v15H68z"/><path fill="#fff" d="M68 68h15v15H68zm0 17h15v15H68z"/><path fill="#fff" d="M68 85h15v15H68zM51 0h15v15H51z"/><path fill="#fff" d="M51 0h15v15H51zm0 17h15v15H51z"/><path fill="#fff" d="M51 17h15v15H51zm0 17h15v15H51z"/><path fill="#fff" d="M51 34h15v15H51zm0 17h15v15H51z"/><path fill="#1C222A" d="M51 51h15v15H51z"/><path fill="#fff" d="M51 68h15v15H51z"/><path fill="#fff" d="M51 68h15v15H51zm0 17h15v15H51z"/><path fill="#fff" d="M51 85h15v15H51zM34 0h15v15H34z"/><path fill="#fff" d="M34 0h15v15H34zm0 17h15v15H34z"/><path fill="#fff" d="M34 17h15v15H34zm0 17h15v15H34z"/><path fill="#fff" d="M34 34h15v15H34zm0 17h15v15H34z"/><path fill="#fff" d="M34 51h15v15H34zm0 17h15v15H34z"/><path fill="#1C222A" d="M34 68h15v15H34z"/><path fill="#fff" d="M34 85h15v15H34z"/><path fill="#fff" d="M34 85h15v15H34zM17 0h15v15H17z"/><path fill="#fff" d="M17 0h15v15H17zm0 17h15v15H17z"/><path fill="#fff" d="M17 17h15v15H17zm0 17h15v15H17z"/><path fill="#fff" d="M17 34h15v15H17zm0 17h15v15H17z"/><path fill="#fff" d="M17 51h15v15H17zm0 17h15v15H17z"/><path fill="#fff" d="M17 68h15v15H17zm0 17h15v15H17z"/><path fill="#1C222A" d="M17 85h15v15H17z"/></svg>