<svg height="511pt" viewBox="0 1 511 511.999" width="511pt" xmlns="http://www.w3.org/2000/svg"><path d="M111.582 283.613c-3.875-3.933-10.21-3.98-14.144-.101-3.934 3.875-3.977 10.207-.102 14.14l.762.77a9.973 9.973 0 007.066 2.922 9.97 9.97 0 007.078-2.938c3.903-3.91 3.895-10.242-.015-14.144zm0 0"/><path d="M298.914 97.594c-55.367-55.367-145.453-55.367-200.82 0-43.64 43.64-54.16 109.883-26.176 164.84 2.508 4.921 8.527 6.878 13.453 4.375 4.922-2.508 6.879-8.528 4.371-13.45-24.043-47.214-15-104.129 22.496-141.625 47.567-47.566 124.969-47.566 172.535 0 47.57 47.57 47.57 124.97 0 172.54-36.09 36.09-91.425 45.898-137.691 24.406-5.008-2.328-10.957-.153-13.281 4.855-2.328 5.008-.153 10.957 4.855 13.281 19.031 8.84 39.371 13.133 59.586 13.133 36.98-.004 73.516-14.375 100.676-41.535 55.363-55.367 55.363-145.453-.004-200.82zm0 0"/><path d="M503.719 439.148l-136.93-136.93c18.824-30.292 29.719-66.003 29.719-104.214C396.508 88.824 307.684 0 198.504 0 89.324 0 .5 88.824.5 198.004c0 109.18 88.824 198.004 198.004 198.004 38.207 0 73.914-10.89 104.203-29.711l136.934 136.93c5.847 5.847 13.53 8.773 21.21 8.773 7.684 0 15.368-2.926 21.215-8.773l21.653-21.653c11.699-11.695 11.699-30.726 0-42.426zM20.5 198.004C20.5 99.852 100.352 20 198.504 20s178.004 79.852 178.004 178.004-79.852 178.004-178.004 178.004S20.5 296.156 20.5 198.004zm334.695 120.902l22.133 22.137-35.793 35.793-22.137-22.137a199.678 199.678 0 0035.797-35.793zm134.383 148.528l-21.652 21.648c-3.899 3.902-10.242 3.902-14.14 0L355.68 390.98l35.793-35.796 98.105 98.105c3.899 3.902 3.899 10.246 0 14.145zm0 0"/><path d="M268.504 198.004c0 5.523 4.48 10 10.004 10 5.52 0 10-4.477 10-10 0-34.36-20.016-66.203-50.985-81.125-4.976-2.399-10.953-.305-13.351 4.668-2.395 4.976-.305 10.953 4.672 13.351 24.093 11.606 39.66 36.375 39.66 63.106zm-69.844-70c5.524 0 10-4.477 10-10 0-5.524-4.476-10-10-10h-.156c-5.524 0-10 4.476-10 10 0 5.523 4.476 10 10 10zm0 0"/></svg>